<svg width="82" height="40" viewBox="0 0 82 40" fill="none" xmlns="http://www.w3.org/2000/svg">
<path fill-rule="evenodd" clip-rule="evenodd" d="M10.3681 19.0342V21H0V26.6777H27.9569V21H17.6351V18.9877C20.4122 18.6154 22.634 17.8242 24.254 16.5677C25.874 15.3111 27.1208 12.6788 27.1208 9.7701C27.1208 7.61727 26.3369 5.30529 25.7814 4.32798C25.1334 3.3972 24.3003 2.60604 23.1894 1.9545C22.0785 1.30296 20.7362 0.837575 19.1625 0.465264C17.5888 0.186033 15.8299 -0.00012207 13.8859 -0.00012207C11.9418 -0.00012207 10.183 0.186033 8.60924 0.465264C7.0355 0.837575 5.6932 1.30296 4.58233 1.9545C3.47146 2.60604 2.59202 3.3972 2.03659 4.32798C1.43487 5.30529 0.64709 7.58448 0.723223 9.7701C0.824292 12.6716 2.03659 15.3111 3.61033 16.6142C5.18406 17.9173 7.45209 18.7084 10.3681 19.0342ZM58.6929 7.70202V19.0109H43.3259V24.6886H58.6929L54.1569 39.5345H61.4238L64.6505 28.974C65.5186 26.1329 65.9599 23.1785 65.9599 20.2077V2.0243H43.3259V7.70202H58.6929ZM81.5269 13.5H77.5V1.09353H70.2331V39.9999H77.5V19.1777H81.5269V13.5ZM37.9692 27.2948V16.2244H41.9961V10.5467H37.9692V2.0243H30.7022V27.2948H37.9692ZM23.8085 28.3797L39.8235 33.816L36.8612 39.6799L20.0593 33.8248L3.25739 39.6799L0.292181 33.816L16.3072 28.3797L20.001 28.3797H23.8085ZM6.98223 13.5548C8.01323 14.3072 9.49909 14.764 11.4095 14.9521C13.3199 15.1402 14.3509 15.1402 16.1703 14.9252C17.9897 14.7102 19.4452 14.2534 20.5066 13.5279C21.5679 12.8024 22.3847 11.2824 22.3847 9.60298C22.3847 8.35994 21.8711 7.025 21.5072 6.4607C21.0827 5.92327 20.5369 5.46646 19.8091 5.09026C19.0814 4.71406 18.202 4.44534 17.171 4.23037C16.14 4.06914 14.9877 3.96165 13.7141 3.96165C12.4405 3.96165 11.2882 4.06914 10.2572 4.23037C9.22617 4.44534 8.34679 4.71406 7.61902 5.09026C6.89125 5.46646 6.3151 5.92327 5.95122 6.4607C5.55701 7.025 5.04091 8.34101 5.09079 9.60298C5.15701 11.2783 5.95122 12.8024 6.98223 13.5548Z" fill="white"/>
<path d="M7.71791 6.15715C8.52409 5.62931 9.14389 5.37126 10.1444 5.13843C11.3785 4.85123 12.5789 4.77038 13.5784 4.88284C14.6041 4.99824 16.111 5.37307 15.9132 6.33154C15.7153 7.29 14.8503 7.29 13.5784 7.16221C12.3066 7.03441 10.6651 7.08857 9.68105 7.99288C8.697 8.89719 7.71791 9.07914 7.11324 8.77196C6.01131 8.21218 6.91173 6.68499 7.71791 6.15715Z" fill="white"/>
<path d="M6.63635 11.0916C6.59224 10.5832 6.89149 9.99002 7.61405 10.0186C8.38709 10.0492 8.81505 10.4985 8.8621 10.8999C8.90915 11.3012 8.60773 12.3585 7.71791 12.2045C6.82809 12.0504 6.69401 11.7562 6.63635 11.0916Z" fill="white"/>
</svg>
