<svg width="45" height="36" viewBox="0 0 45 36" fill="none" xmlns="http://www.w3.org/2000/svg">
<path d="M30.7895 29.6053L30.7895 34.3421C30.7894 34.4976 30.82 34.6517 30.8794 34.7954C30.9389 34.9391 31.0261 35.0697 31.1361 35.1797C31.2461 35.2897 31.3767 35.3769 31.5204 35.4364C31.6641 35.4958 31.8181 35.5264 31.9737 35.5263L43.8158 35.5263C43.9713 35.5264 44.1254 35.4958 44.2691 35.4364C44.4128 35.3769 44.5434 35.2897 44.6534 35.1797C44.7633 35.0697 44.8506 34.9391 44.91 34.7954C44.9695 34.6517 45.0001 34.4976 45 34.3421L45 29.6053C45.0001 29.4497 44.9695 29.2957 44.91 29.152C44.8506 29.0083 44.7633 28.8777 44.6534 28.7677C44.5434 28.6577 44.4128 28.5705 44.2691 28.511C44.1254 28.4515 43.9713 28.421 43.8158 28.4211L40.2632 28.4211L40.2632 7.10527L43.8158 7.10527C43.9713 7.10536 44.1254 7.07479 44.2691 7.01531C44.4128 6.95583 44.5434 6.8686 44.6534 6.75862C44.7633 6.64864 44.8506 6.51806 44.91 6.37434C44.9695 6.23063 45.0001 6.07659 45 5.92106L45 1.18421C45.0001 1.02868 44.9695 0.874644 44.91 0.730928C44.8506 0.587213 44.7633 0.456633 44.6534 0.346651C44.5434 0.236669 44.4128 0.149443 44.2691 0.0899629C44.1254 0.0304827 43.9713 -8.69675e-05 43.8158 3.32996e-06L31.9737 3.84759e-06C31.8181 -8.64363e-05 31.6641 0.0304833 31.5204 0.0899635C31.3767 0.149444 31.2461 0.236669 31.1361 0.346651C31.0261 0.456634 30.9389 0.587213 30.8794 0.730929C30.82 0.874645 30.7894 1.02868 30.7895 1.18421L30.7895 5.92106C30.7894 6.07659 30.82 6.23063 30.8794 6.37434C30.9389 6.51806 31.0261 6.64864 31.1361 6.75862C31.2461 6.8686 31.3767 6.95583 31.5204 7.01531C31.6641 7.07479 31.8181 7.10536 31.9737 7.10527L37.8947 7.10527L37.8947 11.8421L36.7105 11.8421C36.555 11.842 36.401 11.8726 36.2572 11.9321C36.1135 11.9915 35.9829 12.0788 35.873 12.1888C35.763 12.2987 35.6758 12.4293 35.6163 12.573C35.5568 12.7167 35.5262 12.8708 35.5263 13.0263L35.5263 16.579L9.47368 16.579L9.47368 13.0263C9.47377 12.8708 9.44321 12.7168 9.38372 12.573C9.32424 12.4293 9.23702 12.2987 9.12704 12.1888C9.01706 12.0788 8.88647 11.9916 8.74276 11.9321C8.59904 11.8726 8.44501 11.842 8.28947 11.8421L7.10526 11.8421L7.10526 7.10527L13.0263 7.10527C13.1819 7.10536 13.3359 7.07479 13.4796 7.01531C13.6233 6.95583 13.7539 6.8686 13.8639 6.75862C13.9739 6.64864 14.0611 6.51806 14.1206 6.37434C14.18 6.23063 14.2106 6.0766 14.2105 5.92106L14.2105 1.18422C14.2106 1.02868 14.18 0.874646 14.1206 0.73093C14.0611 0.587214 13.9739 0.456634 13.8639 0.346652C13.7539 0.23667 13.6233 0.149444 13.4796 0.0899643C13.3359 0.0304841 13.1819 -8.56217e-05 13.0263 4.67581e-06L1.18421 5.19345e-06C1.02867 -8.50904e-05 0.874641 0.0304846 0.730925 0.0899648C0.587209 0.149445 0.456627 0.236671 0.346645 0.346653C0.236662 0.456635 0.149438 0.587215 0.0899577 0.73093C0.0304776 0.874646 -9.15992e-05 1.02868 -1.30171e-06 1.18422L-1.09466e-06 5.92106C-9.13785e-05 6.0766 0.0304778 6.23063 0.089958 6.37434C0.149438 6.51806 0.236663 6.64864 0.346645 6.75862C0.456627 6.8686 0.587209 6.95583 0.730925 7.01531C0.874641 7.07479 1.02867 7.10536 1.18421 7.10527L4.73684 7.10527L4.73684 28.4211L1.18421 28.4211C1.02867 28.421 0.874642 28.4515 0.730926 28.511C0.58721 28.5705 0.456628 28.6577 0.346646 28.7677C0.236664 28.8777 0.149439 29.0083 0.089959 29.152C0.0304788 29.2957 -9.03569e-05 29.4497 -5.93853e-08 29.6053L1.47669e-07 34.3421C-9.01362e-05 34.4976 0.030479 34.6517 0.0899592 34.7954C0.149439 34.9391 0.236664 35.0697 0.346646 35.1797C0.456628 35.2897 0.587211 35.3769 0.730926 35.4364C0.874642 35.4958 1.02867 35.5264 1.18421 35.5263L13.0263 35.5263C13.1819 35.5264 13.3359 35.4958 13.4796 35.4364C13.6233 35.3769 13.7539 35.2897 13.8639 35.1797C13.9739 35.0697 14.0611 34.9391 14.1206 34.7954C14.18 34.6517 14.2106 34.4976 14.2105 34.3421L14.2105 29.6053C14.2106 29.4497 14.18 29.2957 14.1206 29.152C14.0611 29.0083 13.9739 28.8777 13.8639 28.7677C13.7539 28.6577 13.6233 28.5705 13.4796 28.511C13.3359 28.4515 13.1819 28.421 13.0263 28.4211L7.10526 28.4211L7.10526 23.6842L8.28947 23.6842C8.44501 23.6843 8.59904 23.6537 8.74276 23.5943C8.88647 23.5348 9.01706 23.4476 9.12704 23.3376C9.23702 23.2276 9.32425 23.097 9.38373 22.9533C9.44321 22.8096 9.47377 22.6555 9.47368 22.5L9.47368 18.9474L35.5263 18.9474L35.5263 22.5C35.5262 22.6555 35.5568 22.8096 35.6163 22.9533C35.6758 23.097 35.763 23.2276 35.873 23.3376C35.9829 23.4476 36.1135 23.5348 36.2572 23.5943C36.401 23.6537 36.555 23.6843 36.7105 23.6842L37.8947 23.6842L37.8947 28.4211L31.9737 28.4211C31.8181 28.421 31.6641 28.4515 31.5204 28.511C31.3767 28.5705 31.2461 28.6577 31.1361 28.7677C31.0261 28.8777 30.9389 29.0083 30.8794 29.152C30.82 29.2957 30.7894 29.4497 30.7895 29.6053V29.6053ZM37.4045 30.7895L39.7729 33.1579L38.385 33.1579L36.0166 30.7895L37.4045 30.7895ZM33.1579 31.2797L35.0361 33.1579L33.1579 33.1579L33.1579 31.2797ZM42.6316 32.6676L40.7534 30.7895L42.6316 30.7895L42.6316 32.6676ZM38.385 4.73685L36.0166 2.36842L37.4045 2.36842L39.7729 4.73685L38.385 4.73685ZM42.6316 4.24658L40.7534 2.36842L42.6316 2.36842L42.6316 4.24658ZM33.1579 2.85883L35.036 4.73685L33.1579 4.73685L33.1579 2.85883ZM6.615 2.36843L8.98342 4.73685L7.59552 4.73685L5.2271 2.36843L6.615 2.36843ZM11.8421 4.24658L9.96395 2.36843L11.8421 2.36843L11.8421 4.24658ZM2.36842 2.85869L4.24658 4.73685L2.36842 4.73685L2.36842 2.85869ZM6.615 30.7895L8.98342 33.1579L7.59553 33.1579L5.2271 30.7895L6.615 30.7895ZM2.36842 31.2797L4.24658 33.1579L2.36842 33.1579L2.36842 31.2797ZM11.8421 32.6676L9.96395 30.7895L11.8421 30.7895L11.8421 32.6676Z" fill="current"/>
<path d="M27.3273 21.6629L26.815 21.4175C26.1471 21.0976 25.3663 21.1385 24.7413 21.4964L24.9594 21.8773C24.9594 21.7501 24.9594 21.5902 24.9594 21.4303H24.9594H24.9594H24.9594H24.9594H24.9594H24.9594H24.9594H24.9595H24.9595H24.9595H24.9595H24.9595H24.9595H24.9595H24.9595H24.9595H24.9595H24.9595H24.9596H24.9596H24.9596H24.9596H24.9596H24.9596H24.9596H24.9596H24.9596H24.9597H24.9597H24.9597H24.9597H24.9597H24.9597H24.9597H24.9597H24.9597H24.9597H24.9597H24.9597H24.9598H24.9598H24.9598H24.9598H24.9598H24.9598H24.9598H24.9598H24.9598H24.9599H24.9599H24.9599H24.9599H24.9599H24.9599H24.9599H24.9599H24.9599H24.96H24.96H24.96H24.96H24.96H24.96H24.96H24.9601H24.9601H24.9601H24.9601H24.9601H24.9601H24.9601H24.9602H24.9602H24.9602H24.9602H24.9602H24.9602H24.9603H24.9603H24.9603H24.9603H24.9603H24.9603H24.9604H24.9604H24.9604H24.9604H24.9604H24.9605H24.9605H24.9605H24.9605H24.9605H24.9605H24.9606H24.9606H24.9606H24.9606H24.9607H24.9607H24.9607H24.9607H24.9607H24.9608H24.9608H24.9608H24.9608H24.9609H24.9609H24.9609H24.9609H24.961H24.961H24.961H24.961H24.9611H24.9611H24.9611H24.9611H24.9612H24.9612H24.9612H24.9612H24.9613H24.9613H24.9613H24.9614H24.9614H24.9614H24.9614H24.9615H24.9615H24.9615H24.9616H24.9616H24.9616H24.9617H24.9617H24.9617H24.9618H24.9618H24.9618H24.9619H24.9619H24.9619H24.962H24.962H24.962H24.9621H24.9621H24.9621H24.9622H24.9622H24.9622H24.9623H24.9623H24.9624H24.9624H24.9624H24.9625H24.9625H24.9625H24.9626H24.9626H24.9627H24.9627H24.9627H24.9628H24.9628H24.9629H24.9629H24.963H24.963H24.963H24.9631H24.9631H24.9632H24.9632H24.9633H24.9633H24.9634H24.9634H24.9634H24.9635H24.9635H24.9636H24.9636H24.9637H24.9637H24.9638H24.9638H24.9639H24.9639H24.964H24.964H24.9641H24.9641H24.9642H24.9642H24.9643H24.9643H24.9644H24.9645H24.9645H24.9646H24.9646H24.9647H24.9647H24.9648H24.9648H24.9649H24.965H24.965H24.9651H24.9651H24.9652H24.9652H24.9653H24.9654H24.9654H24.9655H24.9655H24.9656H24.9657H24.9657H24.9658H24.9659H24.9659H24.966H24.9661H24.9661H24.9662H24.9662H24.9663H24.9664H24.9664H24.9665H24.9666H24.9667H24.9667H24.9668H24.9669H24.9669H24.967H24.9671H24.9671H24.9672H24.9673H24.9674H24.9674H24.9675H24.9676H24.9677H24.9677H24.9678H24.9679H24.968H24.968H24.9681H24.9682H24.9683H24.9683H24.9684H24.9685H24.9686H24.9687H24.9687H24.9688H24.9689H24.969H24.9691H24.9692H24.9692H24.9693H24.9694H24.9695H24.9696H24.9697H24.9698H24.9698H24.9699H24.97H24.9701H24.9702H24.9703H24.9704H24.9705H24.9706H24.9707H24.9707H24.9708H24.9709H24.971H24.9711H24.9712H24.9713H24.9714H24.9715H24.9716H24.9717H24.9718H24.9719H24.972H24.9721H24.9722H24.9723H24.9724H24.9725H24.9726H24.9727H24.9728H24.9729H24.973H24.9731H24.9732H24.9733H24.9734H24.9735H24.9736H24.9737H24.9739H24.974H24.9741H24.9742H24.9743H24.9744H24.9745H24.9746H24.9747H24.9749H24.975H24.9751H24.9752H24.9753H24.9754H24.9755H24.9757H24.9758H24.9759H24.976H24.9761H24.9763H24.9764H24.9765H24.9766H24.9767H24.9769H24.977H24.9771H24.9772H24.9774H24.9775H24.9776H24.9777H24.9779H24.978H24.9781H24.9783H24.9784H24.9785H24.9786H24.9788H24.9789H24.979H24.9792H24.9793H24.9794H24.9796H24.9797H24.9799H24.98H24.9801H24.9803H24.9804H24.9805H24.9807H24.9808H24.981H24.9811H24.9813H24.9814H24.9815H24.9817H24.9818H24.982H24.9821H24.9823H24.9824H24.9826H24.9827H24.9829H24.983H24.9832H24.9833H24.9835H24.9836H24.9838H24.9839H24.9841H24.9842H24.9844H24.9846H24.9847H24.9849H24.985H24.9852H24.9853H24.9855H24.9857H24.9858H24.986H24.9862H24.9863H24.9865H24.9866H24.9868H24.987H24.9871H24.9873H24.9875H24.9877H24.9878H24.988H24.9882H24.9883H24.9885H24.9887H24.9889H24.989H24.9892H24.9894H24.9896H24.9897V21.5506L25.0741 21.8851C25.5446 21.6495 26.1123 21.6354 26.599 21.8685L27.1151 22.1157C27.4491 22.2702 27.8438 22.1466 27.9956 21.8376L28.8762 20.2923C29.0583 19.9833 28.9673 19.5815 28.6636 19.3652M27.3273 21.6629C27.3265 21.6626 27.3258 21.6623 27.3251 21.6619L27.1151 22.1157L27.3311 21.6648L27.3273 21.6629ZM27.3273 21.6629C27.3789 21.6862 27.4316 21.6868 27.4735 21.6736C27.5153 21.6604 27.5369 21.6374 27.5469 21.6171L27.5536 21.6034L27.5612 21.59L28.4417 20.0448L28.4454 20.0384L28.4454 20.0384C28.4885 19.9653 28.4773 19.8488 28.3769 19.7749M28.3769 19.7749L28.3829 19.7789L28.6636 19.3652M28.3769 19.7749C28.3758 19.774 28.3746 19.7732 28.3735 19.7724L28.6636 19.3652M28.3769 19.7749L27.9274 19.4699L27.9215 19.4658L27.9215 19.4658C27.295 19.0273 26.9491 18.3143 26.9491 17.5727C26.9491 16.7872 27.3358 16.0798 27.9519 15.6487L27.9578 15.6445L28.2082 19.0561L28.6636 19.3652M20.3914 11.7058C20.3721 12.0791 20.1783 12.4167 19.8722 12.6223H19.8469L19.7315 12.6884C19.3849 12.8869 18.9511 12.9078 18.5867 12.7332L18.5868 12.733L18.5741 12.7274L18.0911 12.5123C17.5465 12.2626 16.8534 12.4418 16.5634 13.0098L15.691 14.5409C15.3758 15.0799 15.5408 15.7559 16.0336 16.1164L16.4492 16.4488L16.4617 16.4588L16.4748 16.468C16.8198 16.7094 17.0205 17.109 17.0205 17.5418C17.0205 17.9735 16.8209 18.372 16.4775 18.6137L16.0253 18.9205L16.0252 18.9204L16.0159 18.9271C15.5133 19.2852 15.3427 19.9682 15.6606 20.5118L16.5396 22.0542L16.5395 22.0542L16.5433 22.0606C16.8483 22.5781 17.52 22.8119 18.0752 22.5335L18.5867 22.2885C18.9501 22.1144 19.374 22.1375 19.7115 22.3522L19.7213 22.3584L19.7315 22.3642C20.067 22.5563 20.3137 22.9299 20.3619 23.3613L20.3915 23.9046L20.3913 23.9046L20.3924 23.9181C20.4439 24.5465 20.9626 25.0263 21.5891 25.0263H23.3502C23.9767 25.0263 24.4954 24.5465 24.5468 23.9181L24.547 23.9181L24.5478 23.9046L24.5781 23.3483L24.5782 23.3468C24.5975 22.9736 24.7913 22.636 25.0974 22.4303H25.1227L25.2382 22.3642C25.5848 22.1658 26.0185 22.1448 26.383 22.3194L26.8991 22.5667L26.8991 22.5667L26.9052 22.5695C27.4504 22.8218 28.146 22.6431 28.4366 22.0737L29.309 20.5426C29.6269 19.999 29.4564 19.3161 28.9538 18.958L28.9538 18.9579L28.9444 18.9514L28.4922 18.6446C28.1488 18.4029 27.9491 18.0044 27.9491 17.5727C27.9491 17.1231 28.1685 16.7189 28.5225 16.4699L28.9747 16.163L28.9748 16.1631L28.9841 16.1565C29.4867 15.7984 29.6573 15.1154 29.3394 14.5718L28.4604 13.0293L28.4605 13.0293L28.4567 13.023C28.1517 12.5054 27.4801 12.2717 26.9249 12.55L26.4133 12.795C26.0489 12.9696 25.6151 12.9487 25.2685 12.7502L25.1531 12.6842H25.1359C24.8508 12.4776 24.6474 12.1336 24.6067 11.7431C24.6066 11.7428 24.6066 11.7424 24.6066 11.742L24.5464 11.1299C24.4928 10.5037 23.9752 10.0263 23.3502 10.0263H21.6195C20.9929 10.0263 20.4743 10.5061 20.4228 11.1345L20.4226 11.1345L20.4219 11.1481L20.3915 11.7044L20.3914 11.7058ZM24.9594 21.9303H24.9897H24.9594ZM22.5 20.1941C21.0841 20.1941 19.903 19.0047 19.903 17.5418C19.903 16.0788 21.0841 14.8895 22.5 14.8895C23.9159 14.8895 25.097 16.0788 25.097 17.5418C25.097 19.0047 23.9159 20.1941 22.5 20.1941Z" fill="current" stroke="white"/>
<circle cx="22.5" cy="17.5" r="2.5" fill="white"/>
</svg>
