<svg width="45" height="36" viewBox="0 0 45 36" fill="none" xmlns="http://www.w3.org/2000/svg">
<path d="M30.7895 29.6053L30.7895 34.3421C30.7894 34.4976 30.82 34.6517 30.8794 34.7954C30.9389 34.9391 31.0261 35.0697 31.1361 35.1797C31.2461 35.2897 31.3767 35.3769 31.5204 35.4364C31.6641 35.4958 31.8181 35.5264 31.9737 35.5263L43.8158 35.5263C43.9713 35.5264 44.1254 35.4958 44.2691 35.4364C44.4128 35.3769 44.5434 35.2897 44.6534 35.1797C44.7633 35.0697 44.8506 34.9391 44.91 34.7954C44.9695 34.6517 45.0001 34.4976 45 34.3421L45 29.6053C45.0001 29.4497 44.9695 29.2957 44.91 29.152C44.8506 29.0083 44.7633 28.8777 44.6534 28.7677C44.5434 28.6577 44.4128 28.5705 44.2691 28.511C44.1254 28.4515 43.9713 28.421 43.8158 28.4211L40.2632 28.4211L40.2632 7.10527L43.8158 7.10527C43.9713 7.10536 44.1254 7.07479 44.2691 7.01531C44.4128 6.95583 44.5434 6.8686 44.6534 6.75862C44.7633 6.64864 44.8506 6.51806 44.91 6.37434C44.9695 6.23063 45.0001 6.07659 45 5.92106L45 1.18421C45.0001 1.02868 44.9695 0.874643 44.91 0.730928C44.8506 0.587213 44.7633 0.456633 44.6534 0.346651C44.5434 0.23667 44.4128 0.149443 44.2691 0.0899639C44.1254 0.0304813 43.9713 -8.58454e-05 43.8158 1.89945e-06L31.9737 2.41708e-06C31.8181 -8.53142e-05 31.6641 0.0304819 31.5204 0.0899644C31.3767 0.149443 31.2461 0.23667 31.1361 0.346652C31.0261 0.456633 30.9389 0.587214 30.8794 0.730929C30.82 0.874644 30.7894 1.02868 30.7895 1.18421L30.7895 5.92106C30.7894 6.07659 30.82 6.23063 30.8794 6.37434C30.9389 6.51806 31.0261 6.64864 31.1361 6.75862C31.2461 6.8686 31.3767 6.95583 31.5204 7.01531C31.6641 7.07479 31.8181 7.10536 31.9737 7.10527L37.8947 7.10527L37.8947 11.8421L36.7105 11.8421C36.555 11.842 36.401 11.8726 36.2572 11.9321C36.1135 11.9915 35.9829 12.0788 35.873 12.1888C35.763 12.2987 35.6758 12.4293 35.6163 12.573C35.5568 12.7167 35.5262 12.8708 35.5263 13.0263L35.5263 16.579L9.47368 16.579L9.47368 13.0263C9.47377 12.8708 9.4432 12.7168 9.38373 12.573C9.32424 12.4293 9.23702 12.2987 9.12704 12.1888C9.01706 12.0788 8.88647 11.9916 8.74276 11.9321C8.59904 11.8726 8.44501 11.842 8.28947 11.8421L7.10526 11.8421L7.10526 7.10527L13.0263 7.10527C13.1819 7.10536 13.3359 7.07479 13.4796 7.01531C13.6233 6.95583 13.7539 6.8686 13.8639 6.75862C13.9739 6.64864 14.0611 6.51806 14.1206 6.37434C14.18 6.23063 14.2106 6.07659 14.2105 5.92106L14.2105 1.18421C14.2106 1.02868 14.18 0.874645 14.1206 0.73093C14.0611 0.587215 13.9739 0.456634 13.8639 0.346652C13.7539 0.236671 13.6233 0.149444 13.4796 0.0899652C13.3359 0.0304827 13.1819 -8.44995e-05 13.0263 3.2453e-06L1.18421 3.76293e-06C1.02867 -8.39683e-05 0.874641 0.0304832 0.730925 0.0899658C0.587209 0.149445 0.456627 0.236671 0.346645 0.346653C0.236662 0.456635 0.149438 0.587215 0.0899577 0.73093C0.0304776 0.874645 -9.15992e-05 1.02868 -1.30171e-06 1.18422L-1.09466e-06 5.92106C-9.13786e-05 6.0766 0.0304778 6.23063 0.089958 6.37434C0.149438 6.51806 0.236663 6.64864 0.346645 6.75862C0.456627 6.8686 0.587209 6.95583 0.730925 7.01531C0.874641 7.07479 1.02867 7.10536 1.18421 7.10527L4.73684 7.10527L4.73684 28.4211L1.18421 28.4211C1.02867 28.421 0.874642 28.4515 0.730926 28.511C0.58721 28.5705 0.456628 28.6577 0.346646 28.7677C0.236664 28.8777 0.149439 29.0083 0.089959 29.152C0.0304788 29.2957 -9.03569e-05 29.4497 -5.93853e-08 29.6053L1.47669e-07 34.3421C-9.01362e-05 34.4976 0.030479 34.6517 0.0899592 34.7954C0.149439 34.9391 0.236664 35.0697 0.346646 35.1797C0.456628 35.2897 0.587211 35.3769 0.730926 35.4364C0.874642 35.4958 1.02867 35.5264 1.18421 35.5263L13.0263 35.5263C13.1819 35.5264 13.3359 35.4958 13.4796 35.4364C13.6233 35.3769 13.7539 35.2897 13.8639 35.1797C13.9739 35.0697 14.0611 34.9391 14.1206 34.7954C14.18 34.6517 14.2106 34.4976 14.2105 34.3421L14.2105 29.6053C14.2106 29.4497 14.18 29.2957 14.1206 29.152C14.0611 29.0083 13.9739 28.8777 13.8639 28.7677C13.7539 28.6577 13.6233 28.5705 13.4796 28.511C13.3359 28.4515 13.1819 28.421 13.0263 28.4211L7.10526 28.4211L7.10526 23.6842L8.28947 23.6842C8.44501 23.6843 8.59904 23.6537 8.74276 23.5943C8.88647 23.5348 9.01706 23.4476 9.12704 23.3376C9.23702 23.2276 9.32424 23.097 9.38373 22.9533C9.44321 22.8096 9.47377 22.6555 9.47368 22.5L9.47368 18.9474L35.5263 18.9474L35.5263 22.5C35.5262 22.6555 35.5568 22.8096 35.6163 22.9533C35.6758 23.097 35.763 23.2276 35.873 23.3376C35.9829 23.4476 36.1135 23.5348 36.2572 23.5943C36.401 23.6537 36.555 23.6843 36.7105 23.6842L37.8947 23.6842L37.8947 28.4211L31.9737 28.4211C31.8181 28.421 31.6641 28.4515 31.5204 28.511C31.3767 28.5705 31.2461 28.6577 31.1361 28.7677C31.0261 28.8777 30.9389 29.0083 30.8794 29.152C30.82 29.2957 30.7894 29.4497 30.7895 29.6053ZM37.4045 30.7895L39.7729 33.1579L38.385 33.1579L36.0166 30.7895L37.4045 30.7895ZM33.1579 31.2797L35.0361 33.1579L33.1579 33.1579L33.1579 31.2797ZM42.6316 32.6676L40.7534 30.7895L42.6316 30.7895L42.6316 32.6676ZM38.385 4.73685L36.0166 2.36843L37.4045 2.36843L39.7729 4.73685L38.385 4.73685ZM42.6316 4.24658L40.7534 2.36843L42.6316 2.36843L42.6316 4.24658ZM33.1579 2.85883L35.0361 4.73685L33.1579 4.73685L33.1579 2.85883ZM6.615 2.36843L8.98342 4.73685L7.59552 4.73685L5.2271 2.36843L6.615 2.36843ZM11.8421 4.24658L9.96395 2.36843L11.8421 2.36843L11.8421 4.24658ZM2.36842 2.85869L4.24658 4.73685L2.36842 4.73685L2.36842 2.85869ZM6.615 30.7895L8.98342 33.1579L7.59553 33.1579L5.2271 30.7895L6.615 30.7895ZM2.36842 31.2797L4.24658 33.1579L2.36842 33.1579L2.36842 31.2797ZM11.8421 32.6676L9.96395 30.7895L11.8421 30.7895L11.8421 32.6676Z" fill="#2195F2"/>
</svg>
