<svg xmlns="http://www.w3.org/2000/svg" viewBox="0 0 24 30" x="0px" y="0px"><title>type-sport-convertible</title><path d="M4,16H5.27814a1.9824,1.9824,0,0,0,3.44372,0h6.55628a1.98237,1.98237,0,0,0,3.44476-.00189,1.50408,1.50408,0,0,0,1.39819-.98688l.60987-1.68164a1.50344,1.50344,0,0,0-.44922-1.6626L19.5,11.0163V11H21V10H18.07538a8.43913,8.43913,0,0,0-2.468-.86084l-.356-.06543L14.20294,11H9.27319l2.28052-.80176-.332-.94336L4.67041,11.55811A2.50393,2.50393,0,0,0,3,13.917V15A1.0013,1.0013,0,0,0,4,16Zm3,0a1,1,0,1,1,1-1A1.0013,1.0013,0,0,1,7,16Zm10,0a1,1,0,1,1,1-1A1.0013,1.0013,0,0,1,17,16Zm-1.2207-5.80469A7.42747,7.42747,0,0,1,17.77258,11H15.34131ZM4,13.917a1.50253,1.50253,0,0,1,1.00244-1.41553L6.5,11.975V12H19.12061l.5205.43457a.50041.50041,0,0,1,.14942.5542l-.60987,1.68164a.49576.49576,0,0,1-.18963.24084A1.99643,1.99643,0,0,0,15,15H9a1.977,1.977,0,0,0-.27814-1H14V13H7a2.002,2.002,0,0,0-2,2H4Z"/><text x="0" y="39" fill="#000000" font-size="5px" font-weight="bold" font-family="'Helvetica Neue', Helvetica, Arial-Unicode, Arial, Sans-serif">Created by Wireform</text><text x="0" y="44" fill="#000000" font-size="5px" font-weight="bold" font-family="'Helvetica Neue', Helvetica, Arial-Unicode, Arial, Sans-serif">from the Noun Project</text></svg>