<svg id="레이어_1" data-name="레이어 1" xmlns="http://www.w3.org/2000/svg" viewBox="0 0 64 36"><title>convertible</title><path d="M49,9.81a23.16,23.16,0,0,0-6.85-2.39l-.65-.12-2.94,5.4H21.34L30.1,9.62l-.61-1.73L11.4,14.25A6.61,6.61,0,0,0,7,20.46v3.07a2.35,2.35,0,0,0,2.33,2.34h3.92l.14.25a5.12,5.12,0,0,0,7,1.91,5.3,5.3,0,0,0,1.91-1.91l.14-.25H41.58l.14.25a5.11,5.11,0,0,0,8.89,0l.15-.25H51a3.77,3.77,0,0,0,3.5-2.47l1.73-4.76a3.77,3.77,0,0,0-1.13-4.16l-2.39-2v-.73l.5-.05H57V9.87H49.09ZM17.83,26.87h0a3.34,3.34,0,1,1,3.34-3.34A3.34,3.34,0,0,1,17.83,26.87Zm28.34,0h0a3.34,3.34,0,1,1,3.33-3.34A3.35,3.35,0,0,1,46.17,26.87Zm7.8-11A1.9,1.9,0,0,1,54.54,18l-1.72,4.77a2,2,0,0,1-.73.93l-.74.49,0-.89A5.16,5.16,0,0,0,41,23.53V24H23v-.49A5,5,0,0,0,22.28,21l-.45-.76H37.17V18.37H17.83a5.17,5.17,0,0,0-5.16,5.16V24H8.83V20.46A4.76,4.76,0,0,1,12,16l4.91-1.72v.27H52.36ZM40.63,12.7l1.82-3.36.38.09a21.66,21.66,0,0,1,5.78,2.34l1.59.93Z" fill='current'/></svg>