<svg id="레이어_1" data-name="레이어 1" xmlns="http://www.w3.org/2000/svg" viewBox="0 0 64 36"><title>coupe</title><path d="M48.87,9.94a23.54,23.54,0,0,0-11-2.77H34A12.2,12.2,0,0,0,30,7.86L11.4,14.39A6.59,6.59,0,0,0,7,20.6v3.07A2.34,2.34,0,0,0,9.33,26h3.92l.14.25a5.12,5.12,0,0,0,7,1.91,5.15,5.15,0,0,0,1.91-1.91l.14-.25H41.58l.14.25a5.12,5.12,0,0,0,7,1.91,5.15,5.15,0,0,0,1.91-1.91l.15-.25H51a3.76,3.76,0,0,0,3.5-2.46l1.73-4.77a3.75,3.75,0,0,0-1.13-4.15l-2.39-2v-.73l.5-.05H57V10H49Zm-18.3-.35A10.38,10.38,0,0,1,34,9h3.87c.4,0,.81,0,1.21.08l1.24.1-1.82,3.65H21.34ZM17.83,27h0a3.34,3.34,0,1,1,3.34-3.33A3.34,3.34,0,0,1,17.83,27Zm28.34,0h0a3.34,3.34,0,1,1,3.33-3.33A3.34,3.34,0,0,1,46.17,27ZM54,16a1.91,1.91,0,0,1,.57,2.13L52.82,22.9a2,2,0,0,1-.73.93l-.74.49,0-.88A5.16,5.16,0,0,0,41,23.66v.51H23v-.5a5,5,0,0,0-.72-2.58l-.45-.76H37.17V18.5H17.83a5.17,5.17,0,0,0-5.16,5.17v.5H8.83V20.6A4.78,4.78,0,0,1,12,16.11l4.91-1.72v.28H52.36Zm-13.4-3.18,1.67-3.34.38.08a21.37,21.37,0,0,1,6,2.33l1.63.93Z" fill='current'/></svg>