<svg width="14" height="14" viewBox="0 0 14 14" fill="none" xmlns="http://www.w3.org/2000/svg">
<path d="M7 0C3.13437 0 0 3.13437 0 7C0 10.8656 3.13437 14 7 14C10.8656 14 14 10.8656 14 7C14 3.13437 10.8656 0 7 0ZM7 12.8125C3.79063 12.8125 1.1875 10.2094 1.1875 7C1.1875 3.79063 3.79063 1.1875 7 1.1875C10.2094 1.1875 12.8125 3.79063 12.8125 7C12.8125 10.2094 10.2094 12.8125 7 12.8125Z" fill="current"/>
<path d="M8.74351 3.94795C8.27476 3.53701 7.65601 3.31201 6.99976 3.31201C6.34351 3.31201 5.72476 3.53857 5.25601 3.94795C4.76851 4.37451 4.49976 4.94795 4.49976 5.56201V5.68076C4.49976 5.74951 4.55601 5.80576 4.62476 5.80576H5.37476C5.44351 5.80576 5.49976 5.74951 5.49976 5.68076V5.56201C5.49976 4.87295 6.17319 4.31201 6.99976 4.31201C7.82632 4.31201 8.49976 4.87295 8.49976 5.56201C8.49976 6.04795 8.15601 6.49326 7.62319 6.69795C7.29194 6.82451 7.01069 7.04639 6.80913 7.33701C6.60444 7.63389 6.49819 7.99014 6.49819 8.35107V8.68701C6.49819 8.75576 6.55444 8.81201 6.62319 8.81201H7.37319C7.44194 8.81201 7.49819 8.75576 7.49819 8.68701V8.33232C7.499 8.18064 7.5455 8.03272 7.63162 7.90785C7.71775 7.78298 7.8395 7.68697 7.98101 7.63232C8.90288 7.27764 9.49819 6.46514 9.49819 5.56201C9.49976 4.94795 9.23101 4.37451 8.74351 3.94795ZM6.37476 10.437C6.37476 10.6028 6.4406 10.7617 6.55781 10.879C6.67502 10.9962 6.834 11.062 6.99976 11.062C7.16552 11.062 7.32449 10.9962 7.4417 10.879C7.55891 10.7617 7.62476 10.6028 7.62476 10.437C7.62476 10.2713 7.55891 10.1123 7.4417 9.99507C7.32449 9.87786 7.16552 9.81201 6.99976 9.81201C6.834 9.81201 6.67502 9.87786 6.55781 9.99507C6.4406 10.1123 6.37476 10.2713 6.37476 10.437Z" fill="current"/>
</svg>
