<svg width="45" height="36" viewBox="0 0 45 36" fill="none" xmlns="http://www.w3.org/2000/svg">
<path fill-rule="evenodd" clip-rule="evenodd" d="M30.8585 0.785285C30.8128 0.913173 30.7894 1.04812 30.7895 1.18421V5.92105C30.7895 5.93077 30.7896 5.94049 30.7898 5.9502C30.7933 6.0958 30.8237 6.2396 30.8794 6.37434C30.9389 6.51805 31.0261 6.64863 31.1361 6.75862C31.2392 6.86172 31.3604 6.94483 31.4936 7.00383C31.5025 7.00776 31.5114 7.01159 31.5204 7.0153C31.6641 7.07478 31.8181 7.10535 31.9737 7.10526C31.9737 7.10526 31.9737 7.10526 31.9737 7.10526L37.8947 7.10526V16.5789L9.47368 16.5789V13.0263C9.47377 12.8708 9.4432 12.7167 9.38373 12.573C9.32424 12.4293 9.23702 12.2987 9.12704 12.1888C9.01706 12.0788 8.88647 11.9915 8.74276 11.9321C8.59904 11.8726 8.44501 11.842 8.28947 11.8421H7.10526L7.10526 7.10527H13.0263C13.1819 7.10536 13.3359 7.07479 13.4796 7.01531C13.6233 6.95583 13.7539 6.8686 13.8639 6.75862C13.9739 6.64864 14.0611 6.51806 14.1206 6.37434C14.18 6.23062 14.2106 6.07659 14.2105 5.92105L14.2105 1.18421C14.2106 1.02867 14.18 0.874643 14.1206 0.730927C14.0611 0.587211 13.9739 0.456632 13.8639 0.34665C13.7539 0.236667 13.6233 0.149442 13.4796 0.0899616C13.3359 0.0304815 13.1819 -8.82618e-05 13.0263 0H1.18421C1.02867 -8.77306e-05 0.874641 0.030482 0.730926 0.0899622C0.58721 0.149442 0.456627 0.236668 0.346645 0.34665C0.236663 0.456632 0.149438 0.587212 0.0899583 0.730928C0.0304781 0.874644 -9.10214e-05 1.02867 0 1.18421V5.92106C-9.08007e-05 6.07659 0.0304784 6.23063 0.0899585 6.37434C0.149439 6.51806 0.236663 6.64864 0.346645 6.75862C0.456628 6.8686 0.58721 6.95583 0.730926 7.01531C0.874642 7.07479 1.02867 7.10536 1.18421 7.10527H4.73684L4.73684 28.4211H1.18421C1.02867 28.421 0.874643 28.4515 0.730927 28.511C0.587211 28.5705 0.456628 28.6577 0.346646 28.7677C0.236664 28.8777 0.14944 29.0083 0.0899595 29.152C0.0304794 29.2957 -8.97791e-05 29.4497 0 29.6053V34.3421C-8.95584e-05 34.4976 0.0304796 34.6517 0.0899598 34.7954C0.14944 34.9391 0.236665 35.0697 0.346647 35.1797C0.456629 35.2897 0.587211 35.3769 0.730927 35.4364C0.874643 35.4958 1.02867 35.5264 1.18421 35.5263H13.0263C13.1819 35.5264 13.3359 35.4958 13.4796 35.4364C13.6233 35.3769 13.7539 35.2897 13.8639 35.1797C13.9739 35.0697 14.0611 34.9391 14.1206 34.7954C14.18 34.6517 14.2106 34.4976 14.2105 34.3421V29.6053C14.2106 29.4497 14.18 29.2957 14.1206 29.152C14.0611 29.0083 13.9739 28.8777 13.8639 28.7677C13.7539 28.6577 13.6233 28.5705 13.4796 28.511C13.3359 28.4515 13.1819 28.421 13.0263 28.4211L7.10526 28.4211V23.6842H8.28947C8.44501 23.6843 8.59904 23.6537 8.74276 23.5943C8.88647 23.5348 9.01706 23.4475 9.12704 23.3376C9.23702 23.2276 9.32425 23.097 9.38373 22.9533C9.44321 22.8096 9.47377 22.6555 9.47368 22.5V18.9474L37.8947 18.9474V28.4211L31.9737 28.4211C31.964 28.421 31.9542 28.4212 31.9445 28.4214C31.7989 28.4249 31.6551 28.4553 31.5204 28.511C31.3767 28.5705 31.2461 28.6577 31.1361 28.7677C31.1361 28.7677 31.1361 28.7677 31.1361 28.7677C31.0261 28.8777 30.9389 29.0083 30.8794 29.152C30.872 29.1699 30.865 29.1881 30.8585 29.2063C30.8128 29.3342 30.7894 29.4691 30.7895 29.6052C30.7895 29.6052 30.7895 29.6053 30.7895 29.6053V34.3421C30.7894 34.4782 30.8128 34.6131 30.8585 34.741C30.865 34.7593 30.872 34.7774 30.8794 34.7954C30.9389 34.9391 31.0261 35.0697 31.1361 35.1797C31.1499 35.1934 31.1639 35.2068 31.1783 35.2198C31.2718 35.3045 31.3782 35.3737 31.4936 35.4249C31.5025 35.4288 31.5114 35.4326 31.5204 35.4364C31.6641 35.4958 31.8181 35.5264 31.9737 35.5263H43.8158C43.9519 35.5264 44.0868 35.503 44.2147 35.4573C44.233 35.4508 44.2511 35.4438 44.2691 35.4364C44.4128 35.3769 44.5434 35.2896 44.6534 35.1797C44.7565 35.0766 44.8396 34.9553 44.8986 34.8222C44.9025 34.8133 44.9063 34.8044 44.91 34.7954C44.9695 34.6517 45.0001 34.4976 45 34.3421V29.6053C45 29.5955 44.9999 29.5858 44.9997 29.5761C44.9962 29.4305 44.9658 29.2867 44.91 29.152C44.9063 29.143 44.9025 29.1341 44.8986 29.1252C44.8396 28.992 44.7565 28.8708 44.6534 28.7677C44.6396 28.754 44.6255 28.7406 44.6112 28.7275C44.5105 28.6363 44.3948 28.5631 44.2691 28.511C44.2511 28.5036 44.233 28.4966 44.2147 28.4901C44.0868 28.4444 43.9519 28.421 43.8158 28.4211H40.2632V7.10526L43.8158 7.10526C43.9519 7.10534 44.0868 7.08195 44.2147 7.03625C44.233 7.02972 44.2511 7.02274 44.2691 7.0153C44.4128 6.95582 44.5434 6.8686 44.6534 6.75862C44.7565 6.65551 44.8396 6.5343 44.8986 6.40113C44.9025 6.39225 44.9063 6.38332 44.91 6.37434C44.9695 6.23064 45.0001 6.07663 45 5.92111C45 5.92109 45 5.92107 45 5.92105V1.18421C45.0001 1.02867 44.9695 0.874641 44.91 0.730925C44.9063 0.721943 44.9025 0.713012 44.8986 0.704134C44.8396 0.570967 44.7565 0.449756 44.6534 0.346647C44.6396 0.3329 44.6255 0.319508 44.6112 0.306481C44.5314 0.234178 44.4421 0.173128 44.3459 0.124999C44.3207 0.112428 44.2951 0.100738 44.2691 0.0899595C44.1255 0.0305156 43.9715 -5.30627e-05 43.8161 -1.31244e-07C43.816 -9.89176e-08 43.8159 0 43.8158 0H31.9737C31.964 -5.61618e-06 31.9542 0.000108532 31.9445 0.000342016C31.7989 0.00384429 31.6551 0.0341974 31.5204 0.08996C31.5114 0.0936776 31.5025 0.0975034 31.4936 0.101436C31.3604 0.160432 31.2392 0.24354 31.1361 0.346648C31.1224 0.360396 31.109 0.374465 31.096 0.388842C31.0048 0.48948 30.9315 0.605174 30.8794 0.730926C30.872 0.74889 30.865 0.767016 30.8585 0.785285ZM39.7729 4.73684L37.4045 2.36842H36.0166L38.385 4.73684H39.7729ZM33.1579 2.85869V4.73684H35.0361L33.1579 2.85869ZM42.6316 4.24658V2.36842H40.7534L42.6316 4.24658ZM6.615 30.7895H5.22711L2.36842 30.7895V31.2797L2.36842 33.1579H4.24658L7.59553 33.1579H8.98342L11.8421 33.1579L11.8421 32.6676V30.7895H9.96395H6.615ZM39.7729 33.1579L37.4045 30.7895H36.0166L38.385 33.1579H39.7729ZM42.6316 32.6676L40.7534 30.7895H42.6316V32.6676ZM35.0361 33.1579L33.1579 31.2797V33.1579H35.0361ZM2.36842 2.85869L2.36842 2.85869L2.36842 4.73685H4.24658L7.59553 4.73684H8.98342L11.8421 4.73684V2.36842H2.36842V2.85869Z" fill="#2195F2"/>
</svg>
