<svg xmlns="http://www.w3.org/2000/svg" viewBox="0 0 24 30" x="0px" y="0px"><title>type-hatchback</title><path d="M4.2652,15.97626A1.98207,1.98207,0,0,0,7.72186,16h7.55628a1.9824,1.9824,0,0,0,3.44372,0H19a1.0013,1.0013,0,0,0,1-1V12.44434a4.52108,4.52108,0,0,0-.4751-2.0127L19.30908,10H20V9H11.03174a4.509,4.509,0,0,0-2.25293.60449L6.294,11.0415l-1.58448.52832A2.49682,2.49682,0,0,0,3,13.94141V14.5A1.49836,1.49836,0,0,0,4.2652,15.97626ZM6,16a1,1,0,1,1,1-1A1.0013,1.0013,0,0,1,6,16Zm11,0a1,1,0,1,1,1-1A1.0013,1.0013,0,0,1,17,16Zm.5-6h.38184a.49681.49681,0,0,1,.44726.27637l.30127.60254c.01923.03845.02606.082.04382.12109H14V10Zm-8.2207.47021A3.50665,3.50665,0,0,1,11.03174,10H13v1H8.356ZM4,13.94141a1.499,1.499,0,0,1,1.02588-1.42334L6.58057,12H13v1h1V12h4.94794A3.475,3.475,0,0,1,19,12.44434V15a2,2,0,0,0-4,0H8a1.9969,1.9969,0,0,0-3.96631-.33325A.4917.4917,0,0,1,4,14.5Z"/><text x="0" y="39" fill="#000000" font-size="5px" font-weight="bold" font-family="'Helvetica Neue', Helvetica, Arial-Unicode, Arial, Sans-serif">Created by Wireform</text><text x="0" y="44" fill="#000000" font-size="5px" font-weight="bold" font-family="'Helvetica Neue', Helvetica, Arial-Unicode, Arial, Sans-serif">from the Noun Project</text></svg>