<svg id="레이어_1" data-name="레이어 1" xmlns="http://www.w3.org/2000/svg" viewBox="0 0 64 36"><title>hatchback</title><path d="M17.41,12.92l-4.49,1.5a6.56,6.56,0,0,0-4.5,6.25v1.58a3.72,3.72,0,0,0,3.16,3.69l.24,0,.12.21a5.11,5.11,0,0,0,7,2,5,5,0,0,0,2-1.94L21,26H43l.14.25a5.12,5.12,0,0,0,7,1.91A5.15,5.15,0,0,0,52,26.25l.14-.25h1.08a2.34,2.34,0,0,0,2.33-2.33V16.42A12.35,12.35,0,0,0,54.29,11L53.32,9h2.26V7.17H30.67a12.32,12.32,0,0,0-6.13,1.64ZM16.42,27h0a3.34,3.34,0,1,1,3.33-3.33A3.34,3.34,0,0,1,16.42,27Zm31.16,0h0a3.34,3.34,0,1,1,3.34-3.33A3.34,3.34,0,0,1,47.58,27Zm-9-18H50.09a1.91,1.91,0,0,1,1.71,1.06l.85,1.71a2.6,2.6,0,0,1,.1.25l0,.11.32.7H38.58Zm0,5.67H53.52l.07.41a9.52,9.52,0,0,1,.16,1.32v7.27h-1a5.17,5.17,0,1,0-10.33,0v.5H21.58v-.51a5.16,5.16,0,0,0-5.15-5.16h0a5.14,5.14,0,0,0-5.08,4.3L11,24.58l-.66-1.68a2,2,0,0,1-.13-.64V20.67a4.74,4.74,0,0,1,3.25-4.51l4.56-1.49H36.75V17.5h1.83ZM30.67,9h6.08v3.83H21.22l4.24-2.43A10.38,10.38,0,0,1,30.67,9Z" fill='current'/></svg>