<svg xmlns="http://www.w3.org/2000/svg" viewBox="0 0 24 30" x="0px" y="0px"><title>type-suv-fullsize</title><path d="M22.0874,7.69434A.99694.99694,0,0,0,21.13525,7H9.2915a2.49643,2.49643,0,0,0-1.895.86963L5.563,10H3.5A2.50294,2.50294,0,0,0,1,12.5V14a1.0013,1.0013,0,0,0,1,1h.06067a2.49649,2.49649,0,0,0,4.87866,0H17.0506a2.49989,2.49989,0,0,0,4.8988,0H22a1.00735,1.00735,0,0,0,.99609-1.00244L23,10.73584a1.35287,1.35287,0,0,0-.12939-.59961ZM21.13525,8l.64631,2H17V8ZM16,8v2H12V8Zm-7.84521.522A1.49533,1.49533,0,0,1,9.2915,8H11v2H6.88269ZM4.5,15.96533a1.5,1.5,0,1,1,1.5-1.5A1.50164,1.50164,0,0,1,4.5,15.96533ZM19.5,16A1.5,1.5,0,1,1,21,14.5,1.50164,1.50164,0,0,1,19.5,16Zm0-4a2.504,2.504,0,0,0-2.4494,2H6.95294a2.49593,2.49593,0,0,0-4.90588,0H2V12.5A1.50164,1.50164,0,0,1,3.5,11H11v1h1V11h4v1h1V11h4.99927l-.00855,3H21.9494A2.504,2.504,0,0,0,19.5,12Z"/><text x="0" y="39" fill="#000000" font-size="5px" font-weight="bold" font-family="'Helvetica Neue', Helvetica, Arial-Unicode, Arial, Sans-serif">Created by Wireform</text><text x="0" y="44" fill="#000000" font-size="5px" font-weight="bold" font-family="'Helvetica Neue', Helvetica, Arial-Unicode, Arial, Sans-serif">from the Noun Project</text></svg>