<svg id="레이어_1" data-name="레이어 1" xmlns="http://www.w3.org/2000/svg" viewBox="0 0 64 36"><title>large</title><path d="M60.1,6a2.3,2.3,0,0,0-2.21-1.62H24.32a6.57,6.57,0,0,0-5,2.29L14,12.83H7.92a6.62,6.62,0,0,0-6.59,6.59v4.25A2.34,2.34,0,0,0,3.67,26h.57l.09.39a6.57,6.57,0,0,0,12.84,0l.09-.39H46.72l.08.4a6.58,6.58,0,0,0,12.9,0l.08-.4h.55a2.37,2.37,0,0,0,2.33-2.34V14.42a3.59,3.59,0,0,0-.32-1.49Zm-14.43.22H58.25l2.15,6.66H45.67Zm-14.17,0H43.83v6.66H31.5ZM20.73,7.82a4.72,4.72,0,0,1,3.59-1.65h5.35v6.66H16.41Zm-10,21.91h0A4.75,4.75,0,1,1,15.5,25,4.75,4.75,0,0,1,10.75,29.73Zm42.5.1h0A4.75,4.75,0,1,1,58,25.08,4.75,4.75,0,0,1,53.25,29.83Zm7.56-5.66h-1l-.08-.4a6.58,6.58,0,0,0-12.9,0l-.08.4H17.29l-.08-.41a6.57,6.57,0,0,0-12.92,0l-.08.41h-1V19.42a4.75,4.75,0,0,1,4.75-4.75H29.67V17.5H31.5V14.67H43.83V17.5h1.84V14.67H60.83Z" fill='current'/></svg>