<svg id="레이어_1" data-name="레이어 1" xmlns="http://www.w3.org/2000/svg" viewBox="0 0 64 36"><title>light</title><path d="M45.64,8.58H30.51A6.69,6.69,0,0,0,26.39,10l-8,6.39A3.72,3.72,0,0,0,17,19.34v2.91a2.34,2.34,0,0,0,2.33,2.33H20l.12.34a3.72,3.72,0,0,0,7,0l.12-.34H37l.12.34a3.72,3.72,0,0,0,7,0l.12-.34h.35a2.35,2.35,0,0,0,1.69-.68A2.31,2.31,0,0,0,47,22.25,1.93,1.93,0,0,0,47,22ZM44,10.42l.37,3.83H41.18l-1.92-3.83Zm-16.44,1a4.77,4.77,0,0,1,3-1h6.7l1.92,3.83H24.06ZM23.61,25.58h0a1.92,1.92,0,1,1,1.92-1.91A1.92,1.92,0,0,1,23.61,25.58Zm17,0h0a1.92,1.92,0,1,1,1.92-1.91A1.92,1.92,0,0,1,40.61,25.58Zm3.68-2.83-.16-.34a3.72,3.72,0,0,0-7,0l-.12.34H27.25l-.12-.34a3.74,3.74,0,0,0-4.74-2.29,3.72,3.72,0,0,0-2.29,2.29l-.12.34H18.86V19.34a1.89,1.89,0,0,1,.72-1.49l2.2-1.77H44.54l.65,6.67Z" fill='current'/></svg>