<svg id="레이어_1" data-name="레이어 1" xmlns="http://www.w3.org/2000/svg" viewBox="0 0 64 36"><title>middle-large</title><path d="M58.92,12.83H56.46L56,12.41A17.93,17.93,0,0,0,43.42,7.17H23.59a12.67,12.67,0,0,0-3.18.41,11,11,0,0,0-4.62,2.79L13.14,12.9,5.78,14.44a6.56,6.56,0,0,0-4.45,6.23v1.58A3.77,3.77,0,0,0,5.08,26h2.5l.14.25a5.12,5.12,0,0,0,7,1.91,5,5,0,0,0,1.91-1.91l.14-.25h30.5l.14.25a5.12,5.12,0,0,0,8.89,0l.14-.25h3.91a2.34,2.34,0,0,0,2.34-2.34V16.58A3.77,3.77,0,0,0,58.92,12.83ZM45.67,9.17l.59.11a16.1,16.1,0,0,1,6.32,2.64l1.29.91h-8.2ZM31.5,9H43.83v3.83H31.5ZM17.05,11.7a9.14,9.14,0,0,1,3.82-2.34h0A10.7,10.7,0,0,1,23.59,9h6.08v3.83H15.87ZM12.17,27h0a3.34,3.34,0,1,1,3.33-3.33A3.34,3.34,0,0,1,12.17,27Zm39.66,0h0a3.34,3.34,0,1,1,3.34-3.33A3.34,3.34,0,0,1,51.83,27Zm9-2.83H57v-.5a5.17,5.17,0,1,0-10.33,0v.5H17.33v-.5A5.17,5.17,0,1,0,7,23.67v.5H5.08a1.93,1.93,0,0,1-1.91-1.92V20.67a4.71,4.71,0,0,1,3.07-4.46l7.49-1.54H29.67V17.5H31.5V14.67H43.83V17.5h1.84V14.67H58.92a1.92,1.92,0,0,1,1.91,1.91Z" fill='current'/></svg>