<svg xmlns="http://www.w3.org/2000/svg" viewBox="0 0 24 30" x="0px" y="0px"><title>type-sedan-fullsize</title><path d="M21.5,11h-.793l-.0957-.09619A6.4621,6.4621,0,0,0,16.01465,9H9.03125a4.50862,4.50862,0,0,0-1.166.15381,4.02451,4.02451,0,0,0-1.71191,1.0293l-.89551.85644L2.709,11.56982A2.49638,2.49638,0,0,0,1,13.94141V14.5A1.50164,1.50164,0,0,0,2.5,16h.7782a1.9823,1.9823,0,0,0,3.4436,0H17.2782a1.9823,1.9823,0,0,0,3.4436,0H22a1.001,1.001,0,0,0,1-1V12.5A1.50164,1.50164,0,0,0,21.5,11Zm-2.33917,0H17v-.90369A5.42942,5.42942,0,0,1,19.16083,11ZM16,10v1H12V10Zm-7.875.11963A3.48876,3.48876,0,0,1,9.03125,10H11v1H6.74622l.09851-.09424A3.04175,3.04175,0,0,1,8.125,10.11963ZM5,16a1,1,0,1,1,1-1A1.001,1.001,0,0,1,5,16Zm14,0a1,1,0,1,1,1-1A1.001,1.001,0,0,1,19,16Zm3-1H21a2,2,0,0,0-4,0H7a2,2,0,0,0-4,0H2.5a.50065.50065,0,0,1-.5-.5v-.55859a1.49012,1.49012,0,0,1,.96875-1.40772L5.55084,12H11v1h1V12h4v1h1V12h4.5a.50065.50065,0,0,1,.5.5Z"/><text x="0" y="39" fill="#000000" font-size="5px" font-weight="bold" font-family="'Helvetica Neue', Helvetica, Arial-Unicode, Arial, Sans-serif">Created by Wireform</text><text x="0" y="44" fill="#000000" font-size="5px" font-weight="bold" font-family="'Helvetica Neue', Helvetica, Arial-Unicode, Arial, Sans-serif">from the Noun Project</text></svg>