<svg width="45" height="36" viewBox="0 0 45 36" fill="none" xmlns="http://www.w3.org/2000/svg">
<path fill-rule="evenodd" clip-rule="evenodd" d="M45 29.6053V34.3421C45.0001 34.4976 44.9695 34.6517 44.91 34.7954C44.8506 34.9391 44.7633 35.0697 44.6534 35.1797C44.5434 35.2896 44.4128 35.3769 44.2691 35.4364C44.1254 35.4958 43.9713 35.5264 43.8158 35.5263L31.9737 35.5263C31.8181 35.5264 31.6641 35.4958 31.5204 35.4364C31.3767 35.3769 31.2461 35.2896 31.1361 35.1797C31.0261 35.0697 30.9389 34.9391 30.8794 34.7954C30.82 34.6517 30.7894 34.4976 30.7895 34.3421V29.6053C30.7894 29.4497 30.82 29.2957 30.8794 29.152C30.9389 29.0083 31.0261 28.8777 31.1361 28.7677C31.2461 28.6577 31.3767 28.5705 31.5204 28.511C31.6641 28.4515 31.8181 28.421 31.9737 28.4211H37.8947V18.9474H24.8684V23.1842C24.8684 23.4604 24.6446 23.6842 24.3684 23.6842H20.6316C20.3554 23.6842 20.1316 23.4604 20.1316 23.1842V18.9474H7.10526L7.10526 28.4211H13.0263C13.1819 28.421 13.3359 28.4515 13.4796 28.511C13.6233 28.5705 13.7539 28.6577 13.8639 28.7677C13.9739 28.8777 14.0611 29.0083 14.1206 29.152C14.18 29.2957 14.2106 29.4497 14.2105 29.6053V34.3421C14.2106 34.4976 14.18 34.6517 14.1206 34.7954C14.0611 34.9391 13.9739 35.0697 13.8639 35.1797C13.7539 35.2896 13.6233 35.3769 13.4796 35.4364C13.3359 35.4958 13.1819 35.5264 13.0263 35.5263H1.18421C1.02867 35.5264 0.874639 35.4958 0.730923 35.4364C0.587207 35.3769 0.456628 35.2896 0.346646 35.1797C0.236663 35.0697 0.149438 34.9391 0.0899576 34.7954C0.0304774 34.6517 -9.22755e-05 34.4976 -1.97798e-06 34.3421L0 29.6053C-9.20548e-05 29.4497 0.0304777 29.2957 0.0899578 29.152C0.149438 29.0083 0.236664 28.8777 0.346646 28.7677C0.456628 28.6577 0.587208 28.5705 0.730923 28.511C0.874639 28.4515 1.02867 28.421 1.18421 28.4211H4.73684L4.73684 7.10526H1.18421C1.02867 7.10535 0.87464 7.07478 0.730924 7.0153C0.587209 6.95582 0.456629 6.8686 0.346647 6.75862C0.236665 6.64863 0.149439 6.51805 0.0899588 6.37433C0.0304787 6.23062 -9.10331e-05 6.07659 0 5.92105V1.18421C-9.08125e-05 1.02867 0.0304789 0.87464 0.0899591 0.730924C0.149439 0.587209 0.236665 0.456626 0.346647 0.346644C0.456629 0.236661 0.587209 0.149437 0.730925 0.0899567C0.87464 0.0304766 1.02867 -9.20133e-05 1.18421 0H13.0263C13.1819 -9.14821e-05 13.3359 0.0304771 13.4796 0.0899573C13.6233 0.149437 13.7539 0.236662 13.8639 0.346644C13.9739 0.456626 14.0611 0.587209 14.1206 0.730925C14.18 0.874641 14.2106 1.02867 14.2105 1.18421V5.92105C14.2106 6.07659 14.18 6.23062 14.1206 6.37434C14.0611 6.51805 13.9739 6.64863 13.8639 6.75862C13.7539 6.8686 13.6233 6.95582 13.4796 7.0153C13.3359 7.07478 13.1819 7.10535 13.0263 7.10526H7.10526L7.10526 16.5789H20.1316V12.3421C20.1316 12.066 20.3554 11.8421 20.6316 11.8421H24.3684C24.6446 11.8421 24.8684 12.066 24.8684 12.3421V16.5789H37.8947V7.10526H31.9737C31.8181 7.10535 31.6641 7.07478 31.5204 7.0153C31.3767 6.95582 31.2461 6.8686 31.1361 6.75862C31.0261 6.64864 30.9389 6.51805 30.8794 6.37434C30.82 6.23062 30.7894 6.07659 30.7895 5.92105V1.18421C30.7894 1.02867 30.82 0.874642 30.8794 0.730926C30.9389 0.58721 31.0261 0.456627 31.1361 0.346645C31.2461 0.236663 31.3767 0.149438 31.5204 0.0899581C31.6641 0.0304779 31.8181 -9.06675e-05 31.9737 0H43.8158C43.9713 -9.01362e-05 44.1254 0.0304785 44.2691 0.0899586C44.4128 0.149439 44.5434 0.236663 44.6534 0.346646C44.7633 0.456628 44.8506 0.587211 44.91 0.730926C44.9695 0.874642 45.0001 1.02867 45 1.18421V5.92105C45.0001 6.07659 44.9695 6.23062 44.91 6.37434C44.8506 6.51805 44.7633 6.64864 44.6534 6.75862C44.5434 6.8686 44.4128 6.95582 44.2691 7.0153C44.1254 7.07478 43.9713 7.10535 43.8158 7.10526H40.2632V28.4211H43.8158C43.9713 28.421 44.1254 28.4515 44.2691 28.511C44.4128 28.5705 44.5434 28.6577 44.6534 28.7677C44.7633 28.8777 44.8506 29.0083 44.91 29.152C44.9695 29.2957 45.0001 29.4497 45 29.6053ZM38.385 4.73684L36.0166 2.36842H37.4045L39.7729 4.73684L38.385 4.73684ZM42.6316 4.24658L40.7534 2.36842L42.6316 2.36842V4.24658ZM33.1579 2.85868L35.0361 4.73684H33.1579V2.85868ZM2.36842 4.73684L2.36842 2.36842L11.8421 2.36842V4.73684L2.36842 4.73684ZM11.8421 30.7895L11.8421 33.1579H2.36842V30.7895H11.8421ZM38.385 33.1579L36.0166 30.7895H37.4045L39.7729 33.1579H38.385ZM42.6316 32.6676L40.7534 30.7895H42.6316V32.6676ZM33.1579 31.2797L35.0361 33.1579H33.1579V31.2797Z" fill="#2195F2"/>
</svg>
