<svg xmlns="http://www.w3.org/2000/svg" viewBox="0 0 24 30" x="0px" y="0px"><title>type-sedan-compact</title><path d="M4.26532,15.97626A1.98191,1.98191,0,0,0,7.7218,16h7.5564a1.9823,1.9823,0,0,0,3.4436,0H19a1.001,1.001,0,0,0,1-1V12a1.001,1.001,0,0,0-1-1h-.34863l-.8584-.57227A8.47074,8.47074,0,0,0,13.07812,9H11.03125a4.504,4.504,0,0,0-2.252.60449L6.294,11.0415l-1.585.52832A2.49638,2.49638,0,0,0,3,13.94141V14.5A1.49841,1.49841,0,0,0,4.26532,15.97626ZM6,16a1,1,0,1,1,1-1A1.001,1.001,0,0,1,6,16Zm11,0a1,1,0,1,1,1-1A1.001,1.001,0,0,1,17,16Zm-3.92188-6a7.4579,7.4579,0,0,1,3.70093,1H13V10Zm-3.79882.47021A3.50486,3.50486,0,0,1,11.03125,10H12v1H8.35626ZM4,13.94141a1.49815,1.49815,0,0,1,1.02539-1.42286L6.582,12H12v1h1V12h6v3a2,2,0,0,0-4,0H8a1.9969,1.9969,0,0,0-3.96625-.33362A.48959.48959,0,0,1,4,14.5Z"/><text x="0" y="39" fill="#000000" font-size="5px" font-weight="bold" font-family="'Helvetica Neue', Helvetica, Arial-Unicode, Arial, Sans-serif">Created by Wireform</text><text x="0" y="44" fill="#000000" font-size="5px" font-weight="bold" font-family="'Helvetica Neue', Helvetica, Arial-Unicode, Arial, Sans-serif">from the Noun Project</text></svg>