<svg width="45" height="36" viewBox="0 0 45 36" fill="none" xmlns="http://www.w3.org/2000/svg">
<path d="M45 34.3421L45 29.6053C45.0001 29.4497 44.9695 29.2957 44.91 29.152C44.8506 29.0083 44.7633 28.8777 44.6534 28.7677C44.5434 28.6577 44.4128 28.5705 44.2691 28.511C44.1254 28.4515 43.9713 28.421 43.8158 28.4211L40.2632 28.4211L40.2632 7.10526L43.8158 7.10526C43.9713 7.10535 44.1254 7.07478 44.2691 7.0153C44.4128 6.95582 44.5434 6.8686 44.6534 6.75862C44.7633 6.64864 44.8506 6.51805 44.91 6.37434C44.9695 6.23062 45.0001 6.07659 45 5.92105L45 1.18421C45.0001 1.02867 44.9695 0.874642 44.91 0.730926C44.8506 0.587211 44.7633 0.456628 44.6534 0.346646C44.5434 0.236663 44.4128 0.149439 44.2691 0.0899586C44.1254 0.0304785 43.9713 -9.01362e-05 43.8158 1.47672e-07L31.9737 -3.69963e-07C31.8181 -9.06675e-05 31.6641 0.0304779 31.5204 0.0899581C31.3767 0.149438 31.2461 0.236663 31.1361 0.346645C31.0261 0.456627 30.9389 0.58721 30.8794 0.730926C30.82 0.874642 30.7894 1.02867 30.7895 1.18421L30.7895 5.92105C30.7894 6.07659 30.82 6.23062 30.8794 6.37434C30.9389 6.51805 31.0261 6.64864 31.1361 6.75862C31.2461 6.8686 31.3767 6.95582 31.5204 7.0153C31.6641 7.07478 31.8181 7.10535 31.9737 7.10526L37.8947 7.10526L37.8947 11.8421L36.7105 11.8421C36.555 11.842 36.401 11.8726 36.2572 11.9321C36.1135 11.9915 35.9829 12.0788 35.873 12.1887C35.763 12.2987 35.6758 12.4293 35.6163 12.573C35.5568 12.7167 35.5262 12.8708 35.5263 13.0263L35.5263 16.5789L7.10526 16.5789L7.10526 7.10526L13.0263 7.10526C13.1819 7.10535 13.3359 7.07478 13.4796 7.0153C13.6233 6.95582 13.7539 6.8686 13.8639 6.75862C13.9739 6.64863 14.0611 6.51805 14.1206 6.37434C14.18 6.23062 14.2106 6.07659 14.2105 5.92105L14.2105 1.18421C14.2106 1.02867 14.18 0.874641 14.1206 0.730925C14.0611 0.587209 13.9739 0.456626 13.8639 0.346644C13.7539 0.236662 13.6233 0.149437 13.4796 0.0899573C13.3359 0.0304771 13.1819 -9.14821e-05 13.0263 -1.19818e-06L1.18421 -1.71581e-06C1.02867 -9.20133e-05 0.874641 0.0304766 0.730927 0.0899567C0.587208 0.149437 0.456631 0.236661 0.346645 0.346644C0.236664 0.456626 0.149441 0.587209 0.0899582 0.730924C0.0304794 0.87464 -9.15977e-05 1.02867 -5.17635e-08 1.18421L-2.58817e-07 5.92105C-9.18184e-05 6.07659 0.0304792 6.23062 0.0899579 6.37434C0.14944 6.51805 0.236664 6.64863 0.346645 6.75862C0.45663 6.8686 0.587207 6.95582 0.730926 7.0153C0.874641 7.07478 1.02867 7.10535 1.18421 7.10526L4.73684 7.10526L4.73684 28.4211L1.18421 28.4211C1.02867 28.421 0.87464 28.4515 0.730925 28.511C0.587207 28.5705 0.456629 28.6577 0.346644 28.7677C0.236663 28.8777 0.149439 29.0083 0.0899569 29.152C0.0304782 29.2957 -9.284e-05 29.4497 -1.29409e-06 29.6053L-1.50114e-06 34.3421C-9.30607e-05 34.4976 0.0304779 34.6517 0.0899567 34.7954C0.149439 34.9391 0.236662 35.0697 0.346644 35.1797C0.456629 35.2896 0.587206 35.3769 0.730925 35.4364C0.87464 35.4958 1.02867 35.5264 1.18421 35.5263L13.0263 35.5263C13.1819 35.5264 13.3359 35.4958 13.4796 35.4364C13.6233 35.3769 13.7539 35.2896 13.8639 35.1797C13.9739 35.0697 14.0611 34.9391 14.1206 34.7954C14.18 34.6517 14.2106 34.4976 14.2105 34.3421L14.2105 29.6053C14.2106 29.4497 14.18 29.2957 14.1206 29.152C14.0611 29.0083 13.9739 28.8777 13.8639 28.7677C13.7539 28.6577 13.6233 28.5705 13.4796 28.511C13.3359 28.4515 13.1819 28.421 13.0263 28.4211L7.10526 28.4211L7.10526 18.9474L35.5263 18.9474L35.5263 22.5C35.5262 22.6555 35.5568 22.8096 35.6163 22.9533C35.6758 23.097 35.763 23.2276 35.873 23.3376C35.9829 23.4475 36.1135 23.5348 36.2572 23.5943C36.401 23.6537 36.555 23.6843 36.7105 23.6842L37.8947 23.6842L37.8947 28.4211L31.9737 28.4211C31.8181 28.421 31.6641 28.4515 31.5204 28.511C31.3767 28.5705 31.2461 28.6577 31.1361 28.7677C31.0261 28.8777 30.9389 29.0083 30.8794 29.152C30.82 29.2957 30.7894 29.4497 30.7895 29.6053L30.7895 34.3421C30.7894 34.4976 30.82 34.6517 30.8794 34.7954C30.9389 34.9391 31.0261 35.0697 31.1361 35.1797C31.2461 35.2896 31.3767 35.3769 31.5204 35.4364C31.6641 35.4958 31.8181 35.5264 31.9737 35.5263L43.8158 35.5263C43.9713 35.5264 44.1254 35.4958 44.2691 35.4364C44.4128 35.3769 44.5434 35.2896 44.6534 35.1797C44.7633 35.0697 44.8506 34.9391 44.91 34.7954C44.9695 34.6517 45.0001 34.4976 45 34.3421ZM38.385 4.73684L36.0166 2.36842L37.4045 2.36842L39.7729 4.73684L38.385 4.73684ZM42.6316 4.24658L40.7534 2.36842L42.6316 2.36842L42.6316 4.24658ZM33.1579 2.85868L35.0361 4.73684L33.1579 4.73684L33.1579 2.85868ZM2.36842 4.73684L2.36842 2.36842L11.8421 2.36842L11.8421 4.73684L2.36842 4.73684ZM11.8421 30.7895L11.8421 33.1579L2.36842 33.1579L2.36842 30.7895L11.8421 30.7895ZM38.385 33.1579L36.0166 30.7895L37.4045 30.7895L39.7729 33.1579L38.385 33.1579ZM42.6316 32.6676L40.7534 30.7895L42.6316 30.7895L42.6316 32.6676ZM33.1579 31.2797L35.0361 33.1579L33.1579 33.1579L33.1579 31.2797Z" fill="#2195F2"/>
</svg>
