<svg id="레이어_1" data-name="레이어 1" xmlns="http://www.w3.org/2000/svg" viewBox="0 0 64 36"><title>RR</title><path d="M49,3.83H39.56a.94.94,0,0,0-1,1h0V8.56a.94.94,0,0,0,.94.94h4.73v3.78h-1a.94.94,0,0,0-.94.94h0v2.84H19.72V9.5h4.72a.94.94,0,0,0,.95-.94h0V4.78a1,1,0,0,0-.94-1H15a1,1,0,0,0-.95,1h0V8.56A1,1,0,0,0,15,9.5h2.83v17H15a1,1,0,0,0-.95.94h0v3.78a1,1,0,0,0,.95,1h9.44a.94.94,0,0,0,.95-1h0V27.44a.94.94,0,0,0-.94-.94H19.72V18.94H42.39v2.84a.94.94,0,0,0,.94.94h1V26.5H39.56a.94.94,0,0,0-1,.94h0v3.78a1,1,0,0,0,.94,1H49a1,1,0,0,0,1-1h0V27.44a1,1,0,0,0-1-.94H46.17V9.5H49a1,1,0,0,0,1-.94h0V4.78A1,1,0,0,0,49,3.83ZM23.5,28.39v1.89H15.94V28.39ZM15.94,7.61V5.72H23.5V7.61ZM48.06,28.39v1.5l-1.5-1.5ZM40.5,7.61V6.11L42,7.61Zm0,22.67v-1.5l1.5,1.5Zm4.17,0-1.89-1.89h1.11l1.89,1.89Zm0-22.67L42.78,5.72h1.11l1.89,1.89Zm3.39-.39-1.5-1.5h1.5Z" fill='current'/></svg>