<svg xmlns="http://www.w3.org/2000/svg" viewBox="0 0 24 30" x="0px" y="0px"><title>type-subcompact</title><path d="M6,16h.0921a1.49109,1.49109,0,0,0,2.8158,0h6.1842a1.49109,1.49109,0,0,0,2.8158,0H18a1.0013,1.0013,0,0,0,1-1V12.91406a1.49075,1.49075,0,0,0-.43945-1.06054l-.53565-.53565A4.47014,4.47014,0,0,0,14.84326,10H11.15674A4.47014,4.47014,0,0,0,7.9751,11.31787l-.77149.771-1.37451.6875A1.49258,1.49258,0,0,0,5,14.11816V15A1.0013,1.0013,0,0,0,6,16Zm1.5,0a.5.5,0,1,1,.5-.5A.50034.50034,0,0,1,7.5,16Zm9,0a.5.5,0,1,1,.5-.5A.50034.50034,0,0,1,16.5,16Zm-.69092-4-.47613-.95221A3.46018,3.46018,0,0,1,17.2876,12Zm-1.61816-1,.5,1H8.7124a3.47435,3.47435,0,0,1,2.44434-1ZM6,14.11816a.49681.49681,0,0,1,.27637-.44726L7.61816,13H18v2h-.0921a1.49109,1.49109,0,0,0-2.8158,0H8.9079a1.49109,1.49109,0,0,0-2.8158,0H6Z"/><text x="0" y="39" fill="#000000" font-size="5px" font-weight="bold" font-family="'Helvetica Neue', Helvetica, Arial-Unicode, Arial, Sans-serif">Created by Wireform</text><text x="0" y="44" fill="#000000" font-size="5px" font-weight="bold" font-family="'Helvetica Neue', Helvetica, Arial-Unicode, Arial, Sans-serif">from the Noun Project</text></svg>