<svg id="레이어_1" data-name="레이어 1" xmlns="http://www.w3.org/2000/svg" viewBox="0 0 64 36"><title>sedan</title><path d="M54.67,12.83H52.21l-.42-.42A17.93,17.93,0,0,0,39.17,7.17H27.84a12.67,12.67,0,0,0-3.18.41A11,11,0,0,0,20,10.37L17.39,12.9,10,14.44a6.56,6.56,0,0,0-4.45,6.23v1.58A3.77,3.77,0,0,0,9.33,26h2.5l.14.25a5.12,5.12,0,0,0,7,1.91,5,5,0,0,0,1.91-1.91L21,26H43l.14.25a5.12,5.12,0,0,0,7,1.91A5.15,5.15,0,0,0,52,26.25l.14-.25h3.91a2.34,2.34,0,0,0,2.34-2.34V16.58A3.77,3.77,0,0,0,54.67,12.83ZM35.75,9h3.38a15.89,15.89,0,0,1,9.2,2.92l1.28.91H35.75ZM21.3,11.7a9.14,9.14,0,0,1,3.82-2.34h0A10.7,10.7,0,0,1,27.84,9h6.08v3.83H20.12ZM16.42,27h0a3.34,3.34,0,1,1,3.33-3.33A3.34,3.34,0,0,1,16.42,27Zm31.16,0h0a3.34,3.34,0,1,1,3.34-3.33A3.34,3.34,0,0,1,47.58,27Zm9-2.83H52.75v-.5a5.17,5.17,0,1,0-10.33,0v.5H21.58v-.5a5.17,5.17,0,1,0-10.33,0v.5H9.33a1.93,1.93,0,0,1-1.91-1.92V20.67a4.73,4.73,0,0,1,3.07-4.46L18,14.67H33.92V17.5h1.83V14.67H54.67a1.92,1.92,0,0,1,1.91,1.91Z" fill='current'/></svg>