<svg xmlns="http://www.w3.org/2000/svg" viewBox="0 0 24 30" x="0px" y="0px"><title>type-sedan</title><path d="M3.5,16h.7782a1.9823,1.9823,0,0,0,3.4436,0h7.5564a1.9823,1.9823,0,0,0,3.4436,0H20a1.001,1.001,0,0,0,1-1V12.5A1.50164,1.50164,0,0,0,19.5,11h-.793l-.0957-.09619A6.4621,6.4621,0,0,0,14.01465,9h-3.9834a4.50862,4.50862,0,0,0-1.166.15381,4.02451,4.02451,0,0,0-1.71191,1.0293l-.89551.85644L3.709,11.56982A2.49638,2.49638,0,0,0,2,13.94141V14.5A1.50164,1.50164,0,0,0,3.5,16ZM6,16a1,1,0,1,1,1-1A1.001,1.001,0,0,1,6,16Zm11,0a1,1,0,1,1,1-1A1.001,1.001,0,0,1,17,16Zm-2.98535-6a5.45393,5.45393,0,0,1,3.14618,1H13V10ZM9.125,10.11963A3.48876,3.48876,0,0,1,10.03125,10H12v1H7.74622l.09851-.09424A3.04175,3.04175,0,0,1,9.125,10.11963ZM3,13.94141a1.49012,1.49012,0,0,1,.96875-1.40772L6.55084,12H12v1h1V12h6.5a.50065.50065,0,0,1,.5.5V15H19a2,2,0,0,0-4,0H8a2,2,0,0,0-4,0H3.5a.50065.50065,0,0,1-.5-.5Z"/><text x="0" y="39" fill="#000000" font-size="5px" font-weight="bold" font-family="'Helvetica Neue', Helvetica, Arial-Unicode, Arial, Sans-serif">Created by Wireform</text><text x="0" y="44" fill="#000000" font-size="5px" font-weight="bold" font-family="'Helvetica Neue', Helvetica, Arial-Unicode, Arial, Sans-serif">from the Noun Project</text></svg>