<svg id="레이어_1" data-name="레이어 1" xmlns="http://www.w3.org/2000/svg" viewBox="0 0 64 36"><title>small</title><path d="M48.72,12.17a12.25,12.25,0,0,0-8.63-3.59H29.61A12,12,0,0,0,21,12.17l-2.32,2.28L14.74,16.4a3.69,3.69,0,0,0-2.07,3.35v2.5A2.34,2.34,0,0,0,15,24.58h.62l.11.34a3.73,3.73,0,0,0,7,0l.11-.34H41.12l.11.34a3.73,3.73,0,0,0,7,0l.11-.34H49a2.34,2.34,0,0,0,2.33-2.33V16.34a3.71,3.71,0,0,0-1.09-2.65Zm-7.21-1.61a10.36,10.36,0,0,1,5.82,2.83l.88.86H42.48l-1.91-3.82ZM22.33,13.39a10.29,10.29,0,0,1,7.27-3h8.92l1.91,3.83h-19ZM19.25,25.58h0a1.92,1.92,0,1,1,1.92-1.91A1.92,1.92,0,0,1,19.25,25.58Zm25.5,0h0a1.92,1.92,0,1,1,1.92-1.91A1.92,1.92,0,0,1,44.75,25.58Zm4.75-2.83H48.38l-.11-.34a3.68,3.68,0,0,0-1.9-2.12,3.72,3.72,0,0,0-5.14,2.12l-.11.34H22.88l-.11-.34a3.68,3.68,0,0,0-1.9-2.12,3.72,3.72,0,0,0-5.14,2.12l-.11.34H14.5v-3A1.91,1.91,0,0,1,15.56,18l3.91-2h30Z" fill='current'/></svg>