<svg id="레이어_1" data-name="레이어 1" xmlns="http://www.w3.org/2000/svg" viewBox="0 0 64 36"><title>small-middle</title><path d="M53.25,12.83H52.11l-2.56-1.7a23.43,23.43,0,0,0-13.06-4H30.67a12.32,12.32,0,0,0-6.13,1.64l-7.13,4.11-4.49,1.5a6.56,6.56,0,0,0-4.5,6.25v1.58a3.72,3.72,0,0,0,3.16,3.69l.24,0,.12.21a5.12,5.12,0,0,0,8.92.06L21,26H43l.14.25a5.12,5.12,0,0,0,7,1.91A5.15,5.15,0,0,0,52,26.25l.14-.25h1.08a2.33,2.33,0,0,0,2.33-2.34V15.17A2.33,2.33,0,0,0,53.25,12.83ZM35.75,9h.72a21.65,21.65,0,0,1,10.74,2.9l1.61.93H35.75ZM25.46,10.4A10.35,10.35,0,0,1,30.67,9h3.25v3.83H21.22Zm-9,16.6h0a3.34,3.34,0,1,1,3.33-3.33A3.34,3.34,0,0,1,16.42,27Zm31.16,0h0a3.34,3.34,0,1,1,3.34-3.33A3.34,3.34,0,0,1,47.58,27Zm6.17-3.33h-1a5.17,5.17,0,1,0-10.33,0v.5H21.58v-.51a5.16,5.16,0,0,0-5.15-5.16h0a5.14,5.14,0,0,0-5.08,4.3L11,24.58l-.66-1.68a2,2,0,0,1-.13-.64V20.67a4.74,4.74,0,0,1,3.25-4.51l4.57-1.49H33.92V17.5h1.83V14.67h18Z" fill='current'/></svg>