<svg xmlns="http://www.w3.org/2000/svg" viewBox="0 0 24 30" x="0px" y="0px"><title>type-suv-midsize</title><path d="M3,15h.06067a2.49649,2.49649,0,0,0,4.87866,0H15.0506a2.49989,2.49989,0,0,0,4.8988,0H20a1.00735,1.00735,0,0,0,.99609-1.00244L21,10.73584a1.35287,1.35287,0,0,0-.12939-.59961L20.0874,7.69434A.99694.99694,0,0,0,19.13525,7H10.2915a2.49643,2.49643,0,0,0-1.895.86963L6.563,10H4.5A2.50294,2.50294,0,0,0,2,12.5V14A1.0013,1.0013,0,0,0,3,15Zm2.5.96533a1.5,1.5,0,1,1,1.5-1.5A1.50164,1.50164,0,0,1,5.5,15.96533ZM17.5,16A1.5,1.5,0,1,1,19,14.5,1.50164,1.50164,0,0,1,17.5,16Zm1.63525-8,.64631,2H17V8ZM16,8v2H13V8Zm-6.84521.522A1.49533,1.49533,0,0,1,10.2915,8H12v2H7.88269ZM3,12.5A1.50164,1.50164,0,0,1,4.5,11H12v1h1V11h6.99927l-.00855,3H19.9494a2.49989,2.49989,0,0,0-4.8988,0H7.95294a2.49593,2.49593,0,0,0-4.90588,0H3Z"/><text x="0" y="39" fill="#000000" font-size="5px" font-weight="bold" font-family="'Helvetica Neue', Helvetica, Arial-Unicode, Arial, Sans-serif">Created by Wireform</text><text x="0" y="44" fill="#000000" font-size="5px" font-weight="bold" font-family="'Helvetica Neue', Helvetica, Arial-Unicode, Arial, Sans-serif">from the Noun Project</text></svg>