<svg id="레이어_1" data-name="레이어 1" xmlns="http://www.w3.org/2000/svg" viewBox="0 0 64 36"><title>SUV</title><path d="M55.85,6a2.3,2.3,0,0,0-2.21-1.62H28.57a6.57,6.57,0,0,0-5,2.29l-5.35,6.21H12.17a6.62,6.62,0,0,0-6.59,6.59v4.25A2.34,2.34,0,0,0,7.92,26h.57l.09.39a6.47,6.47,0,0,0,2.87,4.13,6.56,6.56,0,0,0,10-4.13l.09-.39h21l.08.4a6.58,6.58,0,0,0,12.9,0l.08-.4h.55a2.38,2.38,0,0,0,2.33-2.34V14.42a3.59,3.59,0,0,0-.32-1.49Zm-8.77.22H54l2.15,6.66H47.08Zm-11.33,0h9.5v6.66h-9.5ZM25,7.82a4.72,4.72,0,0,1,3.59-1.65h5.35v6.66H20.66ZM15,29.73h0A4.75,4.75,0,1,1,19.75,25,4.75,4.75,0,0,1,15,29.73Zm34,.1h0a4.75,4.75,0,1,1,4.75-4.75A4.75,4.75,0,0,1,49,29.83Zm7.56-5.66h-1l-.08-.4a6.58,6.58,0,0,0-12.9,0l-.08.4H21.54l-.08-.41a6.57,6.57,0,0,0-12.92,0l-.08.41h-1V19.42a4.75,4.75,0,0,1,4.75-4.75H33.92V17.5h1.83V14.67H56.58Z" fill='current'/></svg>