<svg xmlns="http://www.w3.org/2000/svg" viewBox="0 0 24 30" x="0px" y="0px"><title>type-stationwagon</title><path d="M21.15527,10.09229l-1-.73243A1.59875,1.59875,0,0,0,19.17285,9h-8.1416a4.51179,4.51179,0,0,0-2.10156.521,1.58587,1.58587,0,0,0-.35742.26123L7.26855,11.0293,3.709,11.56982A2.49638,2.49638,0,0,0,2,13.94141V14.5A1.50164,1.50164,0,0,0,3.5,16h.7782a1.9823,1.9823,0,0,0,3.4436,0h8.5564a1.9823,1.9823,0,0,0,3.4436,0h.2489a1.49994,1.49994,0,0,0,1.24024-.65576l.52832-.77637A1.49014,1.49014,0,0,0,22,13.72314v-1.2788a4.48237,4.48237,0,0,0-.34863-1.7378A1.48591,1.48591,0,0,0,21.15527,10.09229Zm-1.59179.07421,1,.73243A.48858.48858,0,0,1,20.64984,11H17.707l-1-1h2.46582A.61748.61748,0,0,1,19.56348,10.1665ZM15.293,10l1,1H13V10Zm-6.02832.50439a.58956.58956,0,0,1,.13183-.09912A3.5138,3.5138,0,0,1,11.03125,10H12v1H8.74658ZM6,16a1,1,0,1,1,1-1A1.001,1.001,0,0,1,6,16Zm12,0a1,1,0,1,1,1-1A1.001,1.001,0,0,1,18,16Zm3-2.27686a.502.502,0,0,1-.08691.28174l-.52832.77637a.497.497,0,0,1-.3855.21167A1.99964,1.99964,0,0,0,16,15H8a2,2,0,0,0-4,0H3.5a.50065.50065,0,0,1-.5-.5v-.55859a1.49411,1.49411,0,0,1,.94141-1.40284L7.539,12H12v1h1V12h7.95624A3.50267,3.50267,0,0,1,21,12.44434Z"/><text x="0" y="39" fill="#000000" font-size="5px" font-weight="bold" font-family="'Helvetica Neue', Helvetica, Arial-Unicode, Arial, Sans-serif">Created by Wireform</text><text x="0" y="44" fill="#000000" font-size="5px" font-weight="bold" font-family="'Helvetica Neue', Helvetica, Arial-Unicode, Arial, Sans-serif">from the Noun Project</text></svg>