<svg id="레이어_1" data-name="레이어 1" xmlns="http://www.w3.org/2000/svg" viewBox="0 0 64 36"><title>wagon</title><path d="M57.65,10.17,54.81,8.09a4,4,0,0,0-2.5-.92h-23a12.42,12.42,0,0,0-5.73,1.41,4.11,4.11,0,0,0-.89.66l-3.81,3.65L8.58,14.44a6.55,6.55,0,0,0-4.41,6.23v1.58A3.76,3.76,0,0,0,7.92,26h2.49l.15.25a5.1,5.1,0,0,0,8.88,0l.15-.25H44.41l.15.25a5.1,5.1,0,0,0,8.88,0l.15-.25h1a3.73,3.73,0,0,0,3.1-1.64l1.5-2.2a3.7,3.7,0,0,0,.65-2.11V16.42a12,12,0,0,0-.95-4.73A3.71,3.71,0,0,0,57.65,10.17ZM52.32,9a2.29,2.29,0,0,1,1.43.58l2.81,2.06a2.27,2.27,0,0,1,.37.42l.49.77H48L44.13,9Zm-18,0h7.21l3.83,3.83h-11ZM23.9,10.57a2.41,2.41,0,0,1,.48-.36A10.51,10.51,0,0,1,29.25,9H32.5v3.83h-11ZM15,27h0a3.34,3.34,0,1,1,3.33-3.33A3.34,3.34,0,0,1,15,27Zm34,0h0a3.34,3.34,0,1,1,3.33-3.33A3.34,3.34,0,0,1,49,27Zm8.67-5.87-1.5,2.2a1.88,1.88,0,0,1-1.48.81l-.52,0v-.52A5.16,5.16,0,0,0,49,18.5h0a5.17,5.17,0,0,0-5.15,5.17v.5H20.17v-.5a5.17,5.17,0,0,0-10.34,0v.5H7.92A1.93,1.93,0,0,1,6,22.25V20.67a4.75,4.75,0,0,1,3-4.44l.11,0,10.2-1.53H32.5V17.5h1.83V14.67H57.8l.07.42A11.57,11.57,0,0,1,58,16.41v3.64A2,2,0,0,1,57.67,21.13Z" fill='current'/></svg>