<svg xmlns="http://www.w3.org/2000/svg" viewBox="0 0 24 30" x="0px" y="0px"><title>microcar</title><path d="M8,16h.0921a1.49109,1.49109,0,0,0,2.8158,0h3.1842a1.49109,1.49109,0,0,0,2.8158,0h.01349a.99845.99845,0,0,0,.99316-1.10352L17.43359,10H11.93408a2.511,2.511,0,0,0-1.56445.5498L8.56256,12H8.5v.05017l-.939.75354A1.49369,1.49369,0,0,0,7,13.97363V15A1.0013,1.0013,0,0,0,8,16Zm1.5,0a.5.5,0,1,1,.5-.5A.50034.50034,0,0,1,9.5,16Zm6,0a.5.5,0,1,1,.5-.5A.50034.50034,0,0,1,15.5,16Zm1.12585-4h-.81677l-.5-1h1.21826Zm-5.63024-.66992A1.50447,1.50447,0,0,1,11.93408,11h2.25684l.5,1H10.16064ZM8,13.97363a.49847.49847,0,0,1,.187-.39013L8.91425,13h7.81012l.197,2H16.9079a1.49109,1.49109,0,0,0-2.8158,0H10.9079a1.49109,1.49109,0,0,0-2.8158,0H8Z"/><text x="0" y="39" fill="#000000" font-size="5px" font-weight="bold" font-family="'Helvetica Neue', Helvetica, Arial-Unicode, Arial, Sans-serif">Created by Wireform</text><text x="0" y="44" fill="#000000" font-size="5px" font-weight="bold" font-family="'Helvetica Neue', Helvetica, Arial-Unicode, Arial, Sans-serif">from the Noun Project</text></svg>