<svg width="100" height="100" viewBox="0 0 100 100" fill="none" xmlns="http://www.w3.org/2000/svg">
<path d="M65.24 22.32C65.3443 22.4921 65.4822 22.6415 65.6454 22.7592C65.8087 22.8769 65.9939 22.9605 66.1902 23.0052C66.3864 23.0498 66.5897 23.0545 66.7878 23.0189C66.9858 22.9833 67.1747 22.9083 67.3432 22.7982C67.5117 22.6881 67.6563 22.5453 67.7684 22.3781C67.8805 22.211 67.9579 22.023 67.9958 21.8254C68.0338 21.6277 68.0316 21.4245 67.9894 21.2277C67.9471 21.0309 67.8657 20.8447 67.75 20.68C65.7581 17.6711 63.0444 15.2089 59.8566 13.518C56.6688 11.8272 53.1083 10.9615 49.5 11C49.1022 11 48.7206 11.158 48.4393 11.4394C48.158 11.7207 48 12.1022 48 12.5C48 12.8978 48.158 13.2794 48.4393 13.5607C48.7206 13.842 49.1022 14 49.5 14C52.6097 13.962 55.6794 14.7036 58.4288 16.1569C61.1783 17.6102 63.5199 19.7291 65.24 22.32Z" fill="#2196F3"/>
<path d="M79 32.32C79 16.69 65.78 4 49.5 4C33.22 4 20 16.69 20 32.32C20.061 37.5938 21.5904 42.7463 24.4166 47.1993C27.2428 51.6523 31.2539 55.2296 36 57.53V70H33.5C33.1022 70 32.7206 70.158 32.4393 70.4393C32.158 70.7206 32 71.1022 32 71.5V85.5C32 85.8978 32.158 86.2794 32.4393 86.5607C32.7206 86.842 33.1022 87 33.5 87H37.56C38.11 92.87 43.48 97.5 50 97.5C56.52 97.5 61.89 92.87 62.44 87H66.5C66.8978 87 67.2794 86.842 67.5607 86.5607C67.842 86.2794 68 85.8978 68 85.5V71.5C68 71.1022 67.842 70.7206 67.5607 70.4393C67.2794 70.158 66.8978 70 66.5 70H63V57.53C67.7461 55.2296 71.7572 51.6523 74.5834 47.1993C77.4096 42.7463 78.939 37.5938 79 32.32ZM50 94.5C45.14 94.5 41.13 91.22 40.58 87H59.43C58.87 91.22 54.86 94.5 50 94.5ZM65 84H35V73H65V84ZM47.26 69.85L43.69 34.69C45.4043 35.8388 47.4214 36.4521 49.485 36.4521C51.5486 36.4521 53.5657 35.8388 55.28 34.69L51.57 69.84C51.5671 69.8933 51.5671 69.9467 51.57 70H47.26C47.2626 69.95 47.2626 69.9 47.26 69.85ZM54.57 70L58.85 29.51C58.9504 29.013 59.0006 28.5071 59 28C59.0005 27.6157 58.8535 27.2458 58.5893 26.9667C58.3251 26.6875 57.9638 26.5205 57.58 26.5C57.1937 26.4722 56.8118 26.5969 56.5164 26.8475C56.2211 27.098 56.0356 27.4543 56 27.84L55.88 29C55.3 31.52 52.66 33.42 49.5 33.42C46.34 33.42 43.67 31.54 43.11 29L43 27.85C42.9801 27.4522 42.803 27.0785 42.5076 26.8113C42.2123 26.5441 41.8228 26.4051 41.425 26.425C41.0272 26.4449 40.6535 26.622 40.3863 26.9174C40.1191 27.2127 39.9801 27.6022 40 28C40.0001 28.4867 40.047 28.9723 40.14 29.45L44.26 70H39V56.58C39.0008 56.2912 38.9182 56.0082 38.7621 55.7652C38.606 55.5222 38.383 55.3294 38.12 55.21C33.6745 53.2403 29.8871 50.0369 27.2072 45.9797C24.5272 41.9226 23.0671 37.1819 23 32.32C23 18.35 34.88 7 49.5 7C64.12 7 76 18.35 76 32.32C75.9348 37.1836 74.4756 41.9264 71.7955 45.9855C69.1154 50.0446 65.3271 53.2496 60.88 55.22C60.6185 55.3387 60.3966 55.5299 60.2406 55.771C60.0846 56.0121 60.0011 56.2929 60 56.58V70H54.57Z" fill="#2196F3"/>
</svg>
