<svg width="100" height="100" viewBox="0 0 100 100" fill="none" xmlns="http://www.w3.org/2000/svg">
<path d="M88.6939 32.1728H74.4701L64.5432 14.2229C64.2801 13.7466 63.7788 13.4517 63.2358 13.4517H36.3846C35.8365 13.4517 35.3333 13.7516 35.0712 14.2329L25.3196 32.1728H10.9543C10.1282 32.1728 9.45959 32.8414 9.45959 33.6675V84.7009C9.45959 85.526 10.1282 86.1956 10.9543 86.1956H88.6939C89.519 86.1956 90.1886 85.526 90.1886 84.7009V33.6675C90.1886 32.8414 89.519 32.1728 88.6939 32.1728ZM87.1992 83.2061H12.449V35.1622H26.2085C26.7565 35.1622 27.2598 34.8623 27.5218 34.381L37.2734 16.4411H62.3539L72.2808 34.391C72.5439 34.8673 73.0451 35.1622 73.5882 35.1622H87.1982V83.2061H87.1992Z" fill="#2196F3"/>
<path d="M49.8311 29.7034C36.5261 29.7034 25.7023 40.5263 25.7023 53.8305C25.7023 67.1327 36.5261 77.9536 49.8311 77.9536C63.1242 77.9536 73.938 67.1327 73.938 53.8305C73.938 40.5263 63.1242 29.7034 49.8311 29.7034ZM49.8311 74.9641C38.1752 74.9641 28.6917 65.4835 28.6917 53.8305C28.6917 42.1755 38.1752 32.6929 49.8311 32.6929C61.476 32.6929 70.9486 42.1755 70.9486 53.8305C70.9486 65.4835 61.475 74.9641 49.8311 74.9641Z" fill="#2196F3"/>
<path d="M49.8221 38.7635C41.5164 38.7635 34.7593 45.5228 34.7593 53.8305C34.7593 62.1363 41.5164 68.8935 49.8221 68.8935C58.1198 68.8935 64.871 62.1363 64.871 53.8305C64.871 45.5228 58.1198 38.7635 49.8221 38.7635ZM49.8221 65.904C43.1646 65.904 37.7487 60.4871 37.7487 53.8305C37.7487 47.171 43.1656 41.753 49.8221 41.753C56.4716 41.753 61.8815 47.171 61.8815 53.8305C61.8815 60.4871 56.4716 65.904 49.8221 65.904Z" fill="#2196F3"/>
</svg>
