<svg width="100" height="100" viewBox="0 0 100 100" fill="none" xmlns="http://www.w3.org/2000/svg">
<path d="M64.82 40.86C64.1966 40.8598 63.5789 40.9786 63 41.21V40.74C62.9974 39.3166 62.4307 37.9522 61.4242 36.9457C60.4177 35.9392 59.0534 35.3726 57.63 35.37H57.38C56.5134 35.3773 55.6619 35.5971 54.9 36.01C54.6495 34.7994 53.9899 33.7121 53.0319 32.9308C52.074 32.1495 50.8762 31.7219 49.64 31.72C48.7258 31.719 47.8245 31.9349 47.01 32.35V24.59H56.51C56.9078 24.59 57.2894 24.4319 57.5707 24.1506C57.852 23.8693 58.01 23.4878 58.01 23.09V8.49997C58.01 8.30215 57.9709 8.10627 57.8949 7.92363C57.8189 7.74098 57.7075 7.57518 57.5671 7.43576C57.4268 7.29634 57.2602 7.18606 57.0771 7.11127C56.8939 7.03648 56.6978 6.99865 56.5 6.99997H25.5C25.1022 6.99997 24.7206 7.15801 24.4393 7.43931C24.158 7.72062 24 8.10215 24 8.49997V23.09C24 23.4878 24.158 23.8693 24.4393 24.1506C24.7206 24.4319 25.1022 24.59 25.5 24.59H36V61.29L27.21 54.09C25.4453 52.6135 23.1933 51.8485 20.8944 51.9446C18.5955 52.0408 16.4152 52.9912 14.78 54.61C14.517 54.8699 14.3593 55.2179 14.3371 55.587C14.315 55.9561 14.4299 56.3204 14.66 56.61L36 83.89V96.5C36 96.8978 36.158 97.2793 36.4393 97.5606C36.7206 97.8419 37.1022 98 37.5 98C37.8978 98 38.2794 97.8419 38.5607 97.5606C38.842 97.2793 39 96.8978 39 96.5V83.37C38.9986 83.0362 38.886 82.7125 38.68 82.45L17.92 55.89C19.0406 55.1765 20.3597 54.8393 21.6853 54.9274C23.0108 55.0155 24.2737 55.5244 25.29 56.38L36.55 65.61C36.769 65.7892 37.0343 65.9029 37.3152 65.9378C37.5961 65.9726 37.8812 65.9273 38.1374 65.807C38.3936 65.6868 38.6106 65.4965 38.7632 65.2581C38.9159 65.0197 38.998 64.743 39 64.46V19.61C39.0026 18.9822 39.2532 18.3809 39.6971 17.937C40.1409 17.4931 40.7422 17.2426 41.37 17.24H41.62C42.2495 17.24 42.8533 17.4893 43.2994 17.9335C43.7454 18.3777 43.9973 18.9805 44 19.61V51.5C44 51.8978 44.158 52.2793 44.4393 52.5606C44.7206 52.8419 45.1022 53 45.5 53C45.8978 53 46.2794 52.8419 46.5607 52.5606C46.842 52.2793 47 51.8978 47 51.5V37C47.0657 36.3574 47.3748 35.7643 47.8638 35.3422C48.3528 34.9201 48.9847 34.7011 49.63 34.73C50.2578 34.7326 50.859 34.9831 51.3029 35.427C51.7468 35.8709 51.9974 36.4722 52 37.1V40.5C52 40.5 52 40.58 52 40.62C52 40.66 52 40.7 52 40.74V51.5C52 51.8978 52.158 52.2793 52.4393 52.5606C52.7206 52.8419 53.1022 53 53.5 53C53.8978 53 54.2794 52.8419 54.5607 52.5606C54.842 52.2793 55 51.8978 55 51.5V40.75C55.0026 40.1222 55.2532 39.5209 55.6971 39.077C56.141 38.6331 56.7422 38.3826 57.37 38.38H57.62C58.2495 38.38 58.8533 38.6293 59.2994 39.0735C59.7454 39.5177 59.9974 40.1205 60 40.75V51.5C60 51.8978 60.158 52.2793 60.4393 52.5606C60.7206 52.8419 61.1022 53 61.5 53C61.8978 53 62.2794 52.8419 62.5607 52.5606C62.842 52.2793 63 51.8978 63 51.5V46C62.9649 45.7374 62.9853 45.4704 63.06 45.2163C63.1347 44.9622 63.2619 44.7266 63.4336 44.5248C63.6052 44.323 63.8173 44.1595 64.0561 44.045C64.295 43.9305 64.5552 43.8674 64.82 43.86C65.3913 43.8599 65.9398 44.0841 66.3475 44.4843C66.7552 44.8845 66.9895 45.4288 67 46V71.89C67.0042 73.9338 66.6034 75.9582 65.8208 77.8463C65.0381 79.7343 63.889 81.4486 62.44 82.89C62.2946 83.035 62.1805 83.2084 62.1048 83.3993C62.0291 83.5902 61.9934 83.7947 62 84V95.5C62 95.8978 62.158 96.2793 62.4393 96.5606C62.7206 96.8419 63.1022 97 63.5 97C63.8978 97 64.2794 96.8419 64.5607 96.5606C64.842 96.2793 65 95.8978 65 95.5V84.57C68.2249 81.137 70.0139 76.6001 70 71.89V46C69.9894 44.6331 69.439 43.3258 68.4687 42.363C67.4984 41.4002 66.1869 40.8599 64.82 40.86ZM41.63 14.23H41.38C39.9531 14.23 38.5847 14.7968 37.5758 15.8057C36.5668 16.8147 36 18.1831 36 19.61V21.61H27V9.99997H55V21.59H47V19.59C46.9947 18.1683 46.4269 16.8065 45.4207 15.8022C44.4145 14.7978 43.0517 14.2326 41.63 14.23Z" fill="#2195F2"/>
<path d="M79.5 13H64.5C64.1022 13 63.7206 13.158 63.4393 13.4393C63.158 13.7206 63 14.1022 63 14.5C63 14.8978 63.158 15.2794 63.4393 15.5607C63.7206 15.842 64.1022 16 64.5 16H79.5C79.8978 16 80.2794 15.842 80.5607 15.5607C80.842 15.2794 81 14.8978 81 14.5C81 14.1022 80.842 13.7206 80.5607 13.4393C80.2794 13.158 79.8978 13 79.5 13Z" fill="#2195F2"/>
<path d="M64.67 22C64.3857 21.735 64.0096 21.5908 63.621 21.5976C63.2324 21.6045 62.8616 21.7619 62.5868 22.0368C62.3119 22.3116 62.1545 22.6823 62.1477 23.071C62.1408 23.4596 62.2851 23.8356 62.55 24.12L75.92 37.52C76.2109 37.734 76.5693 37.8359 76.9293 37.8069C77.2893 37.778 77.6267 37.6201 77.8796 37.3623C78.1326 37.1045 78.284 36.7641 78.3061 36.4036C78.3282 36.0431 78.2195 35.6868 78 35.4L64.67 22Z" fill="#2195F2"/>
<path d="M21.06 26.94C20.7788 26.6591 20.3975 26.5013 20 26.5013C19.6025 26.5013 19.2213 26.6591 18.94 26.94L8.94 36.94C8.79263 37.0773 8.67442 37.2429 8.59244 37.4269C8.51046 37.6109 8.46637 37.8096 8.46282 38.011C8.45927 38.2124 8.49631 38.4124 8.57176 38.5992C8.6472 38.786 8.75949 38.9557 8.90192 39.0981C9.04436 39.2405 9.21403 39.3528 9.40081 39.4283C9.58758 39.5037 9.78764 39.5408 9.98905 39.5372C10.1905 39.5337 10.3891 39.4896 10.5731 39.4076C10.7571 39.3256 10.9227 39.2074 11.06 39.06L21.06 29.06C21.3409 28.7788 21.4987 28.3975 21.4987 28C21.4987 27.6025 21.3409 27.2213 21.06 26.94Z" fill="#2195F2"/>
</svg>
