<svg width="424" height="408" viewBox="0 0 424 408" fill="none" xmlns="http://www.w3.org/2000/svg">
<path d="M247.754 96.4663H245.527V35.3645C245.527 30.7203 244.612 26.1216 242.835 21.8309C241.058 17.5403 238.453 13.6417 235.169 10.3578C231.886 7.07398 227.987 4.46913 223.697 2.69203C219.407 0.914931 214.809 0.000385366 210.165 0.000610393H80.7253C76.0816 0.000535384 71.4834 0.915212 67.1933 2.69241C62.9031 4.46962 59.0049 7.07454 55.7213 10.3584C52.4378 13.6424 49.8331 17.5409 48.0561 21.8316C46.2791 26.1222 45.3645 30.7209 45.3646 35.365V370.573C45.3646 379.952 49.09 388.947 55.7213 395.579C62.3526 402.211 71.3466 405.937 80.7247 405.937H210.165C219.543 405.937 228.537 402.211 235.168 395.579C241.8 388.947 245.525 379.952 245.525 370.573V139.96H247.752L247.754 96.4663Z" fill="#3F3D56"/>
<path d="M238.315 32.9952V372.94C238.314 380.051 235.49 386.871 230.462 391.9C225.435 396.929 218.617 399.755 211.506 399.758H79.4095C72.2964 399.759 65.4741 396.934 60.4433 391.905C55.4124 386.876 52.585 380.054 52.5829 372.94V32.9952C52.585 25.8816 55.4123 19.0601 60.4429 14.0311C65.4735 9.00209 72.2955 6.17741 79.4083 6.17831H95.4324C94.6456 8.11343 94.3462 10.2122 94.5603 12.2902C94.7745 14.3681 95.4958 16.3617 96.6608 18.0956C97.8258 19.8295 99.3988 21.2506 101.242 22.2341C103.084 23.2176 105.14 23.7334 107.229 23.736H182.54C184.629 23.7334 186.685 23.2176 188.528 22.2341C190.37 21.2506 191.943 19.8295 193.108 18.0956C194.273 16.3617 194.995 14.3681 195.209 12.2902C195.423 10.2122 195.124 8.11343 194.337 6.17831H211.501C218.612 6.17953 225.43 9.00456 230.459 14.0323C235.487 19.0601 238.313 25.8791 238.315 32.9901V32.9952Z" fill="white"/>
<path d="M146.866 168.994C131.826 169 117.4 163.03 106.761 152.399C96.1215 141.768 90.1407 127.345 90.1337 112.304V112.253C90.1337 112.135 90.1337 112.009 90.1406 111.891C90.3119 80.8191 115.762 55.5164 146.866 55.5164C154.316 55.516 161.693 56.9831 168.576 59.8341C175.46 62.6851 181.714 66.864 186.982 72.1324C192.251 77.4007 196.43 83.6552 199.281 90.5389C202.133 97.4225 203.601 104.8 203.601 112.251C203.601 119.702 202.134 127.08 199.284 133.964C196.433 140.848 192.255 147.103 186.987 152.372C181.719 157.641 175.465 161.821 168.582 164.672C161.699 167.524 154.322 168.992 146.872 168.993H146.866V168.994ZM146.866 56.7101C132.203 56.7429 118.146 62.5611 107.748 72.9005C97.3503 83.2399 91.4522 97.2652 91.3353 111.929C91.329 112.056 91.329 112.157 91.329 112.254C91.3277 123.241 94.5841 133.982 100.687 143.118C106.789 152.254 115.464 159.375 125.613 163.581C135.762 167.786 146.931 168.888 157.706 166.745C168.481 164.602 178.378 159.312 186.147 151.544C193.916 143.775 199.207 133.877 201.351 123.101C203.494 112.325 202.395 101.155 198.191 91.0045C193.987 80.8535 186.868 72.1772 177.734 66.0729C168.6 59.9685 157.86 56.7102 146.874 56.7101H146.866Z" fill="#E6E6E6"/>
<path d="M122.054 111.771C128.779 111.771 134.231 106.319 134.231 99.5928C134.231 92.8668 128.779 87.4144 122.054 87.4144C115.329 87.4144 109.877 92.8668 109.877 99.5928C109.877 106.319 115.329 111.771 122.054 111.771Z" fill="#3F3D56"/>
<path d="M160.239 137.12H100.502C100.427 137.121 100.352 137.115 100.278 137.103L128.532 88.1615C128.704 87.8566 128.955 87.603 129.257 87.4265C129.56 87.25 129.904 87.157 130.254 87.157C130.604 87.157 130.948 87.25 131.25 87.4265C131.553 87.603 131.803 87.8566 131.975 88.1615L150.936 121.004L151.844 122.575L160.239 137.12Z" fill="#2195F2"/>
<path d="M193.498 137.121H141.831L151.843 122.577L152.563 121.529L165.609 102.575C165.84 102.285 166.129 102.047 166.458 101.876C166.787 101.705 167.148 101.605 167.518 101.583C167.888 101.561 168.258 101.617 168.605 101.748C168.952 101.878 169.267 102.08 169.531 102.341C169.598 102.415 169.661 102.493 169.719 102.575L193.498 137.121Z" fill="#2195F2"/>
<path d="M205.53 228.648H88.1468C87.5705 228.648 87.018 228.418 86.6105 228.011C86.203 227.603 85.9738 227.051 85.9732 226.474V197.354C85.974 196.778 86.2032 196.225 86.6107 195.818C87.0182 195.41 87.5706 195.181 88.1468 195.18H205.53C206.107 195.181 206.659 195.41 207.067 195.818C207.474 196.225 207.703 196.778 207.704 197.354V226.475C207.703 227.051 207.474 227.604 207.067 228.011C206.659 228.419 206.107 228.648 205.53 228.649V228.648ZM88.1468 196.049C87.801 196.05 87.4694 196.187 87.2248 196.432C86.9802 196.676 86.8427 197.008 86.8424 197.354V226.475C86.8427 226.821 86.9802 227.153 87.2248 227.397C87.4694 227.642 87.801 227.779 88.1468 227.78H205.53C205.876 227.779 206.208 227.642 206.452 227.397C206.697 227.153 206.835 226.821 206.835 226.475V197.354C206.835 197.008 206.697 196.676 206.452 196.432C206.208 196.187 205.876 196.05 205.53 196.049H88.1468Z" fill="#E6E6E6"/>
<path d="M103.363 221.045C108.405 221.045 112.493 216.957 112.493 211.914C112.493 206.871 108.405 202.784 103.363 202.784C98.3207 202.784 94.2332 206.871 94.2332 211.914C94.2332 216.957 98.3207 221.045 103.363 221.045Z" fill="#2195F2"/>
<path d="M124.449 205.827C124.045 205.827 123.658 205.987 123.373 206.272C123.087 206.558 122.927 206.945 122.927 207.349C122.927 207.752 123.087 208.139 123.373 208.425C123.658 208.71 124.045 208.87 124.449 208.87H196.183C196.385 208.878 196.587 208.845 196.777 208.774C196.967 208.703 197.14 208.594 197.287 208.455C197.435 208.315 197.552 208.148 197.634 207.962C197.716 207.777 197.759 207.577 197.763 207.374C197.766 207.172 197.729 206.97 197.653 206.782C197.578 206.594 197.465 206.423 197.323 206.279C197.18 206.135 197.01 206.021 196.823 205.943C196.636 205.866 196.435 205.826 196.232 205.827H124.449V205.827Z" fill="#E6E6E6"/>
<path d="M124.449 214.957C124.045 214.957 123.658 215.118 123.373 215.403C123.087 215.689 122.927 216.076 122.927 216.479C122.927 216.883 123.087 217.27 123.373 217.555C123.658 217.841 124.045 218.001 124.449 218.001H196.183C196.385 218.009 196.587 217.976 196.777 217.905C196.967 217.833 197.14 217.725 197.287 217.585C197.435 217.446 197.552 217.279 197.634 217.093C197.716 216.908 197.759 216.708 197.763 216.505C197.766 216.302 197.729 216.101 197.653 215.913C197.578 215.725 197.465 215.554 197.323 215.41C197.18 215.265 197.01 215.151 196.823 215.074C196.636 214.996 196.435 214.957 196.232 214.958H124.449V214.957Z" fill="#E6E6E6"/>
<path d="M205.53 277.346H88.1468C87.5705 277.345 87.018 277.116 86.6105 276.709C86.203 276.301 85.9738 275.748 85.9732 275.172V246.052C85.974 245.475 86.2032 244.923 86.6107 244.515C87.0182 244.108 87.5706 243.879 88.1468 243.878H205.53C206.107 243.879 206.659 244.108 207.067 244.515C207.474 244.923 207.703 245.475 207.704 246.052V275.173C207.703 275.749 207.474 276.301 207.066 276.709C206.659 277.116 206.107 277.345 205.53 277.346ZM88.1468 244.747C87.801 244.747 87.4694 244.885 87.2248 245.13C86.9802 245.374 86.8427 245.706 86.8424 246.052V275.173C86.8427 275.519 86.9802 275.85 87.2248 276.095C87.4694 276.339 87.801 276.477 88.1468 276.477H205.53C205.876 276.477 206.208 276.339 206.452 276.095C206.697 275.85 206.835 275.519 206.835 275.173V246.052C206.835 245.706 206.697 245.374 206.452 245.13C206.208 244.885 205.876 244.747 205.53 244.747H88.1468Z" fill="#E6E6E6"/>
<path d="M103.363 269.742C108.405 269.742 112.493 265.654 112.493 260.611C112.493 255.569 108.405 251.481 103.363 251.481C98.3207 251.481 94.2332 255.569 94.2332 260.611C94.2332 265.654 98.3207 269.742 103.363 269.742Z" fill="#2195F2"/>
<path d="M124.449 254.523C124.045 254.523 123.658 254.683 123.373 254.969C123.087 255.254 122.927 255.641 122.927 256.045C122.927 256.448 123.087 256.835 123.373 257.121C123.658 257.406 124.045 257.567 124.449 257.567H196.183C196.581 257.564 196.962 257.406 197.244 257.126C197.527 256.847 197.689 256.467 197.696 256.069C197.702 255.671 197.553 255.287 197.279 254.998C197.006 254.709 196.63 254.539 196.232 254.523H124.449V254.523Z" fill="#E6E6E6"/>
<path d="M124.449 263.655C124.045 263.655 123.658 263.816 123.373 264.101C123.087 264.386 122.927 264.773 122.927 265.177C122.927 265.581 123.087 265.968 123.373 266.253C123.658 266.539 124.045 266.699 124.449 266.699H196.183C196.581 266.697 196.962 266.539 197.244 266.259C197.527 265.979 197.689 265.599 197.696 265.202C197.702 264.804 197.553 264.419 197.279 264.13C197.006 263.841 196.63 263.671 196.232 263.656H124.449V263.655Z" fill="#E6E6E6"/>
<path d="M205.53 326.043H88.1468C87.5705 326.043 87.018 325.813 86.6105 325.406C86.203 324.998 85.9738 324.446 85.9732 323.869V294.749C85.974 294.173 86.2032 293.62 86.6107 293.213C87.0182 292.805 87.5706 292.576 88.1468 292.575H205.53C206.107 292.576 206.659 292.805 207.067 293.213C207.474 293.62 207.703 294.173 207.704 294.749V323.87C207.703 324.446 207.474 324.999 207.067 325.406C206.659 325.814 206.107 326.043 205.53 326.044V326.043ZM88.1468 293.444C87.801 293.445 87.4694 293.582 87.2248 293.827C86.9802 294.071 86.8427 294.403 86.8424 294.749V323.87C86.8427 324.216 86.9802 324.548 87.2248 324.792C87.4694 325.037 87.801 325.174 88.1468 325.175H205.53C205.876 325.174 206.208 325.037 206.452 324.792C206.697 324.548 206.835 324.216 206.835 323.87V294.749C206.835 294.403 206.697 294.071 206.452 293.827C206.208 293.582 205.876 293.445 205.53 293.444H88.1468Z" fill="#E6E6E6"/>
<path d="M103.363 318.44C108.405 318.44 112.493 314.352 112.493 309.309C112.493 304.266 108.405 300.179 103.363 300.179C98.3207 300.179 94.2332 304.266 94.2332 309.309C94.2332 314.352 98.3207 318.44 103.363 318.44Z" fill="#2195F2"/>
<path d="M124.449 303.222C124.045 303.222 123.658 303.382 123.373 303.667C123.087 303.953 122.927 304.34 122.927 304.744C122.927 305.147 123.087 305.534 123.373 305.82C123.658 306.105 124.045 306.265 124.449 306.265H196.183C196.385 306.273 196.587 306.24 196.777 306.169C196.967 306.098 197.14 305.989 197.287 305.85C197.435 305.71 197.552 305.543 197.634 305.357C197.716 305.172 197.759 304.972 197.763 304.769C197.766 304.567 197.729 304.365 197.653 304.177C197.578 303.989 197.465 303.818 197.323 303.674C197.18 303.53 197.01 303.416 196.823 303.338C196.636 303.261 196.435 303.221 196.232 303.222H124.449V303.222Z" fill="#E6E6E6"/>
<path d="M124.449 312.352C124.045 312.352 123.658 312.513 123.373 312.798C123.087 313.084 122.927 313.471 122.927 313.874C122.927 314.278 123.087 314.665 123.373 314.95C123.658 315.236 124.045 315.396 124.449 315.396H196.183C196.385 315.404 196.587 315.371 196.777 315.3C196.967 315.228 197.14 315.12 197.287 314.98C197.435 314.841 197.552 314.674 197.634 314.488C197.716 314.303 197.759 314.103 197.763 313.9C197.766 313.697 197.729 313.496 197.653 313.308C197.578 313.12 197.465 312.949 197.323 312.805C197.18 312.66 197.01 312.546 196.823 312.469C196.636 312.391 196.435 312.352 196.232 312.353H124.449V312.352Z" fill="#E6E6E6"/>
<path d="M299.98 399.363H292.867L289.484 371.928H299.98L299.98 399.363Z" fill="#FEB8B8"/>
<path d="M301.793 406.257H278.861V405.967C278.861 403.6 279.802 401.329 281.475 399.655C283.149 397.981 285.419 397.041 287.786 397.04H301.794L301.793 406.257Z" fill="#2F2E41"/>
<path d="M388.331 394.706L381.406 396.336L371.824 370.405L382.041 367.998L388.331 394.706Z" fill="#FEB8B8"/>
<path d="M391.677 401.001L369.355 406.256L369.289 405.973C369.02 404.832 368.978 403.649 369.167 402.492C369.355 401.335 369.769 400.226 370.386 399.229C371.003 398.231 371.81 397.366 372.761 396.68C373.713 395.995 374.79 395.504 375.931 395.236L389.564 392.025L391.677 401.001Z" fill="#2F2E41"/>
<path d="M298.527 283.646C298.54 282.219 298.963 248.476 308.211 235.718L308.348 235.53L340.576 239.977L339.855 247.059C341.273 248.438 352.423 260.091 355.643 287.685L389.852 379.567L373.95 381.013L326.872 280.711L301.961 389.737H286.198L298.527 283.646Z" fill="#2F2E41"/>
<path d="M304.436 236.963L307.586 220.422C306.969 219.628 304.237 215.816 304.845 211.346C305.242 208.43 306.982 205.873 310.018 203.745L318.185 184.689L318.295 184.625C318.845 184.301 331.847 176.782 338.935 183.876C339.112 184.013 356.563 197.87 349.557 216.557L340.906 242.517L304.436 236.963Z" fill="#CCCCCC"/>
<path d="M293.475 259.342C294.325 259.244 295.142 258.962 295.871 258.515C296.6 258.067 297.221 257.466 297.692 256.752C298.163 256.038 298.472 255.23 298.597 254.384C298.722 253.538 298.659 252.675 298.415 251.856L315.278 239.705L305.183 235.865L290.717 247.992C289.372 248.498 288.258 249.479 287.586 250.749C286.915 252.02 286.731 253.492 287.07 254.889C287.41 256.285 288.249 257.51 289.428 258.33C290.608 259.15 292.048 259.51 293.475 259.342V259.342Z" fill="#FEB8B8"/>
<path d="M296.575 239.685L322.319 219.4L314.666 193.248C314.305 192.009 314.204 190.71 314.367 189.431C314.53 188.151 314.955 186.919 315.615 185.811C316.226 184.767 317.048 183.861 318.03 183.153C319.011 182.445 320.129 181.95 321.313 181.699C325.72 180.766 329.721 183.234 333.201 189.035L333.228 189.088C333.804 190.496 347.216 223.653 336.975 230.744C326.957 237.679 303.728 247.777 303.495 247.879L303.222 247.996L296.575 239.685Z" fill="#CCCCCC"/>
<path d="M330.79 176.98C339.403 176.98 346.386 169.997 346.386 161.382C346.386 152.768 339.403 145.785 330.79 145.785C322.177 145.785 315.194 152.768 315.194 161.382C315.194 169.997 322.177 176.98 330.79 176.98Z" fill="#FEB8B8"/>
<path d="M355.24 155.813C362.86 155.813 369.037 149.636 369.037 142.015C369.037 134.395 362.86 128.217 355.24 128.217C347.62 128.217 341.443 134.395 341.443 142.015C341.443 149.636 347.62 155.813 355.24 155.813Z" fill="#2F2E41"/>
<path d="M367.139 153.441C365.354 154.731 363.285 155.575 361.107 155.902C358.928 156.228 356.703 156.029 354.618 155.319C352.532 154.61 350.647 153.412 349.119 151.825C347.592 150.237 346.466 148.307 345.837 146.196C346.075 148.089 346.702 149.912 347.68 151.551C348.657 153.189 349.964 154.607 351.518 155.714C353.071 156.822 354.837 157.595 356.704 157.986C358.572 158.376 360.499 158.375 362.366 157.982C364.233 157.59 365.998 156.815 367.55 155.705C369.103 154.596 370.408 153.177 371.384 151.537C372.359 149.898 372.985 148.074 373.22 146.181C373.456 144.288 373.296 142.366 372.751 140.538C373.06 142.994 372.702 145.488 371.714 147.759C370.727 150.029 369.147 151.992 367.139 153.441Z" fill="#2F2E41"/>
<path d="M312.691 153.455C315.1 149.143 316.021 147.344 319.127 144.716C321.874 142.397 325.252 141.716 327.976 143.913C331.29 142.466 334.989 142.154 338.498 143.026C342.008 143.897 345.131 145.903 347.383 148.733C349.635 151.562 350.89 155.056 350.953 158.671C351.015 162.287 349.882 165.822 347.729 168.728C345.576 171.633 342.524 173.747 339.047 174.739C335.57 175.731 331.863 175.548 328.501 174.216C325.139 172.885 322.311 170.48 320.456 167.376C318.601 164.272 317.823 160.642 318.242 157.05C315.873 156.719 315.06 153.79 312.691 153.455Z" fill="#2F2E41"/>
<path d="M422.893 407H1.1068C0.495143 407 0 406.733 0 406.403C0 406.073 0.495714 405.806 1.1068 405.806H422.893C423.504 405.806 423.999 406.073 423.999 406.403C423.999 406.733 423.504 407 422.893 407Z" fill="#E6E6E6"/>
</svg>
