<svg width="425" height="407" viewBox="0 0 425 407" fill="none" xmlns="http://www.w3.org/2000/svg">
<g clip-path="url(#clip0_480_8117)">
<path d="M247.941 96.4663H245.712V35.3645C245.712 30.7203 244.796 26.1216 243.018 21.8309C241.239 17.5403 238.633 13.6417 235.346 10.3578C232.06 7.07398 228.159 4.46913 223.866 2.69203C219.572 0.914931 214.97 0.000385366 210.323 0.000610393H80.786C76.1389 0.000535384 71.5372 0.915212 67.2438 2.69241C62.9504 4.46962 59.0493 7.07454 55.7633 10.3584C52.4772 13.6424 49.8706 17.5409 48.0923 21.8316C46.3139 26.1222 45.3987 30.7209 45.3987 35.365V370.573C45.3987 379.952 49.127 388.947 55.7633 395.579C62.3995 402.211 71.4003 405.937 80.7854 405.937H210.323C219.708 405.937 228.709 402.211 235.345 395.579C241.982 388.947 245.71 379.952 245.71 370.573V139.96H247.939L247.941 96.4663Z" fill="#3F3D56"/>
<path d="M238.495 32.9952V372.94C238.494 380.051 235.667 386.871 230.636 391.9C225.605 396.929 218.781 399.755 211.666 399.758H79.4692C72.3508 399.759 65.5234 396.934 60.4888 391.905C55.4541 386.876 52.6246 380.054 52.6224 372.94V32.9952C52.6246 25.8816 55.454 19.0601 60.4884 14.0311C65.5228 9.00209 72.3499 6.17741 79.4681 6.17831H95.5043C94.7169 8.11343 94.4172 10.2122 94.6315 12.2902C94.8458 14.3681 95.5677 16.3617 96.7335 18.0956C97.8994 19.8295 99.4736 21.2506 101.318 22.2341C103.162 23.2176 105.22 23.7334 107.31 23.736H182.677C184.768 23.7334 186.825 23.2176 188.67 22.2341C190.514 21.2506 192.088 19.8295 193.254 18.0956C194.42 16.3617 195.141 14.3681 195.356 12.2902C195.57 10.2122 195.27 8.11343 194.483 6.17831H211.661C218.776 6.17953 225.6 9.00456 230.632 14.0323C235.664 19.0601 238.492 25.8791 238.495 32.9901V32.9952Z" fill="white"/>
<path d="M205.685 228.648H88.2132C87.6364 228.648 87.0835 228.418 86.6757 228.011C86.2679 227.603 86.0385 227.051 86.0379 226.474V197.354C86.0387 196.778 86.2681 196.225 86.6759 195.818C87.0836 195.41 87.6365 195.181 88.2132 195.18H205.685C206.262 195.181 206.815 195.41 207.222 195.818C207.63 196.225 207.86 196.778 207.86 197.354V226.475C207.86 227.051 207.63 227.604 207.222 228.011C206.815 228.419 206.262 228.648 205.685 228.649V228.648ZM88.2132 196.049C87.8671 196.05 87.5352 196.187 87.2904 196.432C87.0457 196.676 86.9081 197.008 86.9078 197.354V226.475C86.9081 226.821 87.0457 227.153 87.2904 227.397C87.5352 227.642 87.8671 227.779 88.2132 227.78H205.685C206.031 227.779 206.363 227.642 206.608 227.397C206.853 227.153 206.99 226.821 206.99 226.475V197.354C206.99 197.008 206.853 196.676 206.608 196.432C206.363 196.187 206.031 196.05 205.685 196.049H88.2132Z" fill="#E6E6E6"/>
<path d="M103.441 221.045C108.487 221.045 112.577 216.957 112.577 211.914C112.577 206.871 108.487 202.784 103.441 202.784C98.3947 202.784 94.3041 206.871 94.3041 211.914C94.3041 216.957 98.3947 221.045 103.441 221.045Z" fill="#2195F2"/>
<path d="M124.542 205.827C124.139 205.827 123.751 205.987 123.466 206.272C123.18 206.558 123.02 206.945 123.02 207.349C123.02 207.752 123.18 208.139 123.466 208.425C123.751 208.71 124.139 208.87 124.542 208.87H196.33C196.533 208.878 196.735 208.845 196.925 208.774C197.115 208.703 197.289 208.594 197.436 208.455C197.583 208.315 197.701 208.148 197.783 207.962C197.865 207.777 197.908 207.577 197.912 207.374C197.915 207.172 197.878 206.97 197.802 206.782C197.727 206.594 197.614 206.423 197.471 206.279C197.329 206.135 197.159 206.021 196.971 205.943C196.784 205.866 196.583 205.826 196.38 205.827H124.542V205.827Z" fill="#E6E6E6"/>
<path d="M124.542 214.957C124.139 214.957 123.751 215.118 123.466 215.403C123.18 215.689 123.02 216.076 123.02 216.479C123.02 216.883 123.18 217.27 123.466 217.555C123.751 217.841 124.139 218.001 124.542 218.001H196.33C196.533 218.009 196.735 217.976 196.925 217.905C197.115 217.833 197.289 217.725 197.436 217.585C197.583 217.446 197.701 217.279 197.783 217.093C197.865 216.908 197.908 216.708 197.912 216.505C197.915 216.302 197.878 216.101 197.802 215.913C197.727 215.725 197.614 215.554 197.471 215.41C197.329 215.265 197.159 215.151 196.971 215.074C196.784 214.996 196.583 214.957 196.38 214.958H124.542V214.957Z" fill="#E6E6E6"/>
<path d="M205.685 277.346H88.2132C87.6364 277.345 87.0835 277.116 86.6757 276.709C86.2679 276.301 86.0385 275.748 86.0379 275.172V246.052C86.0387 245.475 86.2681 244.923 86.6759 244.515C87.0836 244.108 87.6365 243.879 88.2132 243.878H205.685C206.262 243.879 206.815 244.108 207.222 244.515C207.63 244.923 207.86 245.475 207.86 246.052V275.173C207.859 275.749 207.63 276.301 207.222 276.709C206.814 277.116 206.262 277.345 205.685 277.346V277.346ZM88.2132 244.747C87.8671 244.747 87.5352 244.885 87.2904 245.13C87.0457 245.374 86.9081 245.706 86.9078 246.052V275.173C86.9081 275.519 87.0457 275.85 87.2904 276.095C87.5352 276.339 87.8671 276.477 88.2132 276.477H205.685C206.031 276.477 206.363 276.339 206.608 276.095C206.853 275.85 206.99 275.519 206.99 275.173V246.052C206.99 245.706 206.853 245.374 206.608 245.13C206.363 244.885 206.031 244.747 205.685 244.747H88.2132Z" fill="#E6E6E6"/>
<path d="M103.441 269.742C108.487 269.742 112.577 265.654 112.577 260.611C112.577 255.569 108.487 251.481 103.441 251.481C98.3947 251.481 94.3041 255.569 94.3041 260.611C94.3041 265.654 98.3947 269.742 103.441 269.742Z" fill="#2195F2"/>
<path d="M124.542 254.523C124.139 254.523 123.751 254.683 123.466 254.969C123.18 255.254 123.02 255.641 123.02 256.045C123.02 256.448 123.18 256.835 123.466 257.121C123.751 257.406 124.139 257.567 124.542 257.567H196.33C196.728 257.564 197.11 257.406 197.393 257.126C197.676 256.847 197.838 256.467 197.845 256.069C197.851 255.671 197.701 255.287 197.428 254.998C197.154 254.709 196.778 254.539 196.38 254.523H124.542V254.523Z" fill="#E6E6E6"/>
<path d="M124.542 263.655C124.139 263.655 123.751 263.815 123.466 264.101C123.18 264.386 123.02 264.773 123.02 265.177C123.02 265.581 123.18 265.968 123.466 266.253C123.751 266.539 124.139 266.699 124.542 266.699H196.33C196.728 266.697 197.11 266.539 197.393 266.259C197.676 265.979 197.838 265.599 197.845 265.202C197.851 264.804 197.701 264.419 197.428 264.13C197.154 263.841 196.778 263.671 196.38 263.656H124.542V263.655Z" fill="#E6E6E6"/>
<path d="M205.685 326.043H88.2132C87.6364 326.043 87.0835 325.813 86.6757 325.406C86.2679 324.998 86.0385 324.446 86.0379 323.869V294.749C86.0387 294.173 86.2681 293.62 86.6759 293.213C87.0836 292.805 87.6365 292.576 88.2132 292.575H205.685C206.262 292.576 206.815 292.805 207.222 293.213C207.63 293.62 207.86 294.173 207.86 294.749V323.87C207.86 324.446 207.63 324.999 207.222 325.406C206.815 325.814 206.262 326.043 205.685 326.044V326.043ZM88.2132 293.444C87.8671 293.445 87.5352 293.582 87.2904 293.827C87.0457 294.071 86.9081 294.403 86.9078 294.749V323.87C86.9081 324.216 87.0457 324.548 87.2904 324.792C87.5352 325.037 87.8671 325.174 88.2132 325.175H205.685C206.031 325.174 206.363 325.037 206.608 324.792C206.853 324.548 206.99 324.216 206.99 323.87V294.749C206.99 294.403 206.853 294.071 206.608 293.827C206.363 293.582 206.031 293.445 205.685 293.444H88.2132Z" fill="#E6E6E6"/>
<path d="M103.441 318.44C108.487 318.44 112.577 314.352 112.577 309.309C112.577 304.266 108.487 300.178 103.441 300.178C98.3947 300.178 94.3041 304.266 94.3041 309.309C94.3041 314.352 98.3947 318.44 103.441 318.44Z" fill="#2195F2"/>
<path d="M124.542 303.222C124.139 303.222 123.751 303.382 123.466 303.667C123.18 303.953 123.02 304.34 123.02 304.744C123.02 305.147 123.18 305.534 123.466 305.82C123.751 306.105 124.139 306.265 124.542 306.265H196.33C196.533 306.273 196.735 306.24 196.925 306.169C197.115 306.098 197.289 305.989 197.436 305.85C197.583 305.71 197.701 305.543 197.783 305.357C197.865 305.172 197.908 304.972 197.912 304.769C197.915 304.567 197.878 304.365 197.802 304.177C197.727 303.989 197.614 303.818 197.471 303.674C197.329 303.53 197.159 303.416 196.971 303.338C196.784 303.261 196.583 303.221 196.38 303.222H124.542V303.222Z" fill="#E6E6E6"/>
<path d="M124.542 312.352C124.139 312.352 123.751 312.513 123.466 312.798C123.18 313.084 123.02 313.471 123.02 313.874C123.02 314.278 123.18 314.665 123.466 314.95C123.751 315.236 124.139 315.396 124.542 315.396H196.33C196.533 315.404 196.735 315.371 196.925 315.3C197.115 315.228 197.289 315.12 197.436 314.98C197.583 314.841 197.701 314.674 197.783 314.488C197.865 314.303 197.908 314.103 197.912 313.9C197.915 313.697 197.878 313.496 197.802 313.308C197.727 313.12 197.614 312.949 197.471 312.805C197.329 312.66 197.159 312.546 196.971 312.469C196.784 312.391 196.583 312.352 196.38 312.353H124.542V312.352Z" fill="#E6E6E6"/>
<path d="M300.205 399.363H293.087L289.702 371.928H300.206L300.205 399.363Z" fill="#FEB8B8"/>
<path d="M302.02 406.257H279.071V405.967C279.071 403.6 280.012 401.329 281.687 399.655C283.362 397.981 285.634 397.041 288.003 397.04H302.021L302.02 406.257Z" fill="#2F2E41"/>
<path d="M388.623 394.706L381.693 396.336L372.104 370.405L382.329 367.998L388.623 394.706Z" fill="#FEB8B8"/>
<path d="M391.972 401.001L369.633 406.256L369.567 405.973C369.298 404.832 369.256 403.649 369.445 402.492C369.633 401.335 370.048 400.226 370.665 399.229C371.282 398.231 372.09 397.366 373.042 396.68C373.994 395.995 375.072 395.504 376.214 395.236V395.236L389.858 392.025L391.972 401.001Z" fill="#2F2E41"/>
<path d="M298.751 283.646C298.765 282.219 299.189 248.476 308.443 235.718L308.58 235.53L340.832 239.977L340.111 247.059C341.53 248.438 352.688 260.091 355.911 287.685L390.146 379.567L374.231 381.013L327.118 280.711L302.188 389.737H286.414L298.751 283.646Z" fill="#2F2E41"/>
<path d="M304.665 236.963L307.818 220.422C307.2 219.628 304.466 215.816 305.074 211.346C305.471 208.43 307.213 205.873 310.252 203.745L318.425 184.689L318.535 184.625C319.085 184.301 332.096 176.782 339.19 183.876C339.367 184.013 356.831 197.87 349.82 216.557L341.163 242.517L304.665 236.963Z" fill="#CCCCCC"/>
<path d="M293.696 259.342C294.546 259.244 295.365 258.962 296.094 258.515C296.823 258.067 297.445 257.466 297.916 256.752C298.388 256.038 298.697 255.23 298.822 254.384C298.946 253.538 298.884 252.675 298.639 251.856L315.515 239.705L305.413 235.865L290.936 247.992C289.59 248.498 288.475 249.479 287.803 250.749C287.131 252.02 286.947 253.492 287.286 254.889C287.626 256.285 288.466 257.51 289.646 258.33C290.827 259.15 292.268 259.51 293.696 259.342V259.342Z" fill="#FEB8B8"/>
<path d="M296.798 239.685L322.562 219.4L314.903 193.248C314.542 192.009 314.44 190.71 314.603 189.431C314.767 188.151 315.192 186.919 315.852 185.811C316.464 184.767 317.287 183.861 318.269 183.153C319.251 182.445 320.37 181.95 321.555 181.699C325.965 180.766 329.969 183.234 333.452 189.035L333.479 189.088C334.055 190.496 347.477 223.653 337.229 230.744C327.204 237.679 303.957 247.777 303.723 247.879L303.451 247.996L296.798 239.685Z" fill="#CCCCCC"/>
<path d="M331.039 176.98C339.659 176.98 346.647 169.997 346.647 161.382C346.647 152.768 339.659 145.785 331.039 145.785C322.419 145.785 315.432 152.768 315.432 161.382C315.432 169.997 322.419 176.98 331.039 176.98Z" fill="#FEB8B8"/>
<path d="M355.507 155.813C363.133 155.813 369.314 149.636 369.314 142.015C369.314 134.395 363.133 128.217 355.507 128.217C347.882 128.217 341.7 134.395 341.7 142.015C341.7 149.636 347.882 155.813 355.507 155.813Z" fill="#2F2E41"/>
<path d="M367.416 153.441C365.629 154.731 363.559 155.575 361.379 155.902C359.198 156.228 356.972 156.029 354.885 155.319C352.798 154.61 350.911 153.412 349.382 151.825C347.853 150.237 346.727 148.307 346.097 146.196C346.335 148.089 346.963 149.912 347.941 151.551C348.92 153.189 350.228 154.607 351.782 155.714C353.337 156.822 355.104 157.595 356.973 157.986C358.841 158.376 360.771 158.375 362.639 157.982C364.507 157.59 366.274 156.815 367.827 155.705C369.38 154.596 370.687 153.177 371.663 151.537C372.64 149.898 373.266 148.074 373.501 146.181C373.737 144.288 373.577 142.366 373.032 140.538C373.341 142.994 372.982 145.488 371.994 147.759C371.006 150.029 369.424 151.992 367.416 153.441V153.441Z" fill="#2F2E41"/>
<path d="M312.927 153.455C315.337 149.143 316.259 147.344 319.367 144.716C322.116 142.397 325.496 141.716 328.223 143.913C331.54 142.466 335.241 142.154 338.753 143.026C342.265 143.897 345.391 145.903 347.645 148.733C349.899 151.562 351.154 155.056 351.217 158.671C351.28 162.287 350.146 165.822 347.991 168.728C345.837 171.633 342.782 173.747 339.303 174.739C335.823 175.731 332.113 175.548 328.748 174.216C325.384 172.885 322.553 170.48 320.697 167.376C318.84 164.272 318.062 160.642 318.482 157.05C316.111 156.719 315.297 153.79 312.927 153.455Z" fill="#2F2E41"/>
<path d="M423.211 407H1.10763C0.495516 407 0 406.733 0 406.403C0 406.073 0.496087 405.806 1.10763 405.806H423.211C423.822 405.806 424.319 406.073 424.319 406.403C424.319 406.733 423.823 407 423.211 407Z" fill="#E6E6E6"/>
<path d="M202.696 146.74L199.921 147.381L94.4705 147.427L93.5225 145.218C91.8691 141.428 91.3019 137.253 91.8842 133.16C92.3387 130.108 93.4771 127.077 96.0621 125.76L100.745 94.5924L159.085 94.4938L181.655 112.702C181.655 112.702 192.302 112.511 198.086 119.713C199.916 121.994 201.26 125.016 201.621 129.023L201.849 132.769L202.696 146.74Z" fill="#2195F2"/>
<path d="M176.031 158.757C182.957 160.692 190.14 156.646 192.076 149.72C194.011 142.794 189.965 135.611 183.039 133.675C176.113 131.74 168.93 135.786 166.994 142.712C165.059 149.638 169.105 156.822 176.031 158.757Z" fill="#3F3D56"/>
<path d="M177.691 152.817C181.336 153.835 185.117 151.706 186.135 148.061C187.154 144.415 185.025 140.634 181.379 139.616C177.734 138.597 173.953 140.726 172.935 144.372C171.916 148.017 174.045 151.798 177.691 152.817Z" fill="#D0CDE1"/>
<path d="M111.778 158.785C118.704 160.72 125.888 156.675 127.823 149.748C129.759 142.822 125.713 135.639 118.787 133.703C111.861 131.768 104.677 135.814 102.742 142.74C100.806 149.666 104.852 156.85 111.778 158.785Z" fill="#3F3D56"/>
<path d="M113.438 152.845C117.084 153.863 120.864 151.734 121.883 148.088C122.902 144.443 120.772 140.662 117.127 139.644C113.482 138.625 109.701 140.754 108.682 144.4C107.664 148.045 109.793 151.826 113.438 152.845Z" fill="#D0CDE1"/>
<path d="M172.689 110.571L130.85 110.589L130.844 97.9948L157.527 97.9829L172.689 110.571Z" fill="white"/>
<path d="M125.721 97.997L109.071 98.0042L109.077 110.599L125.727 110.591L125.721 97.997Z" fill="white"/>
<path d="M132.989 119.98L130.854 119.981L130.856 124.037L132.99 124.036L132.989 119.98Z" fill="#3F3D56"/>
<path d="M168.208 116.336L168.207 114.202L164.152 114.203L164.153 116.338L168.208 116.336Z" fill="#3F3D56"/>
<path d="M165.642 106.219L165.877 106.219C167.06 106.219 168.195 106.688 169.033 107.524C169.87 108.361 170.34 109.495 170.341 110.678C170.341 111.862 169.872 112.997 169.035 113.834C168.199 114.671 167.064 115.141 165.881 115.142L165.646 115.142L165.642 106.219Z" fill="#3F3D56"/>
<path d="M201.849 132.769C200.235 132.944 198.61 132.544 197.262 131.64C195.913 130.735 194.928 129.383 194.478 127.823C194.028 126.263 194.144 124.594 194.804 123.11C195.464 121.627 196.626 120.424 198.086 119.713C199.917 121.994 201.261 125.016 201.621 129.023L201.849 132.769Z" fill="#3F3D56"/>
</g>
<defs>
<clipPath id="clip0_480_8117">
<rect width="424.319" height="407" fill="white"/>
</clipPath>
</defs>
</svg>
