<svg width="466" height="82" viewBox="0 0 466 82" fill="none" xmlns="http://www.w3.org/2000/svg">
<path d="M0 2C0 0.895429 0.895431 0 2 0H464C465.105 0 466 0.89543 466 2V80C466 81.1046 465.105 82 464 82H1.99999C0.895424 82 0 81.1046 0 80V2Z" fill="#FAFAFA"/>
<path d="M233.469 20.3757H232.531C232.448 20.3757 232.406 20.4174 232.406 20.5007V25.407H227.75C227.667 25.407 227.625 25.4486 227.625 25.532V26.4695C227.625 26.5528 227.667 26.5945 227.75 26.5945H232.406V31.5007C232.406 31.5841 232.448 31.6257 232.531 31.6257H233.469C233.552 31.6257 233.594 31.5841 233.594 31.5007V26.5945H238.25C238.334 26.5945 238.375 26.5528 238.375 26.4695V25.532C238.375 25.4486 238.334 25.407 238.25 25.407H233.594V20.5007C233.594 20.4174 233.552 20.3757 233.469 20.3757Z" fill="black" fill-opacity="0.85"/>
<path d="M219.239 47.0469V53.8145C219.235 54.7533 218.938 55.5212 218.351 56.1182C217.767 56.7152 216.974 57.0501 215.972 57.123L215.623 57.1367C214.534 57.1367 213.666 56.8428 213.019 56.2549C212.371 55.667 212.043 54.8581 212.034 53.8281V47.0469H213.333V53.7871C213.333 54.5072 213.531 55.0677 213.928 55.4688C214.324 55.8652 214.889 56.0635 215.623 56.0635C216.366 56.0635 216.933 55.8652 217.325 55.4688C217.722 55.0723 217.92 54.514 217.92 53.7939V47.0469H219.239ZM227.36 53.3838C227.36 54.5094 227.103 55.4163 226.588 56.1045C226.073 56.7926 225.376 57.1367 224.496 57.1367C223.598 57.1367 222.892 56.8519 222.377 56.2822V59.8438H221.112V49.6035H222.268L222.329 50.4238C222.844 49.7858 223.56 49.4668 224.476 49.4668C225.364 49.4668 226.066 49.8018 226.581 50.4717C227.101 51.1416 227.36 52.0736 227.36 53.2676V53.3838ZM226.096 53.2402C226.096 52.4062 225.918 51.7477 225.562 51.2646C225.207 50.7816 224.719 50.54 224.1 50.54C223.334 50.54 222.76 50.8796 222.377 51.5586V55.0928C222.755 55.7673 223.334 56.1045 224.113 56.1045C224.719 56.1045 225.2 55.8652 225.556 55.3867C225.916 54.9036 226.096 54.1882 226.096 53.2402ZM230.348 57H229.083V46.5H230.348V57ZM232.043 53.2334C232.043 52.5088 232.184 51.8571 232.467 51.2783C232.754 50.6995 233.15 50.2529 233.656 49.9385C234.167 49.624 234.748 49.4668 235.399 49.4668C236.407 49.4668 237.22 49.8154 237.84 50.5127C238.464 51.21 238.776 52.1374 238.776 53.2949V53.3838C238.776 54.1038 238.637 54.751 238.359 55.3252C238.086 55.8949 237.692 56.3392 237.177 56.6582C236.666 56.9772 236.078 57.1367 235.413 57.1367C234.41 57.1367 233.597 56.7881 232.973 56.0908C232.353 55.3936 232.043 54.4707 232.043 53.3223V53.2334ZM233.314 53.3838C233.314 54.2041 233.504 54.8626 233.882 55.3594C234.265 55.8561 234.775 56.1045 235.413 56.1045C236.056 56.1045 236.566 55.8538 236.944 55.3525C237.323 54.8467 237.512 54.1403 237.512 53.2334C237.512 52.4222 237.318 51.766 236.931 51.2646C236.548 50.7588 236.037 50.5059 235.399 50.5059C234.775 50.5059 234.271 50.7542 233.889 51.251C233.506 51.7477 233.314 52.4587 233.314 53.3838ZM244.929 57C244.856 56.8542 244.797 56.5944 244.751 56.2207C244.163 56.8314 243.461 57.1367 242.646 57.1367C241.916 57.1367 241.317 56.9316 240.848 56.5215C240.383 56.1068 240.15 55.5827 240.15 54.9492C240.15 54.179 240.442 53.582 241.025 53.1582C241.613 52.7298 242.438 52.5156 243.5 52.5156H244.73V51.9346C244.73 51.4925 244.598 51.1416 244.334 50.8818C244.07 50.6175 243.68 50.4854 243.165 50.4854C242.714 50.4854 242.336 50.5993 242.03 50.8271C241.725 51.055 241.572 51.3307 241.572 51.6543H240.301C240.301 51.2852 240.431 50.9297 240.69 50.5879C240.955 50.2415 241.31 49.9681 241.757 49.7676C242.208 49.5671 242.702 49.4668 243.24 49.4668C244.092 49.4668 244.76 49.681 245.243 50.1094C245.726 50.5332 245.977 51.1188 245.995 51.8662V55.2705C245.995 55.9495 246.082 56.4896 246.255 56.8906V57H244.929ZM242.83 56.0361C243.227 56.0361 243.603 55.9336 243.958 55.7285C244.313 55.5234 244.571 55.2568 244.73 54.9287V53.4111H243.739C242.19 53.4111 241.415 53.8646 241.415 54.7715C241.415 55.168 241.547 55.4779 241.812 55.7012C242.076 55.9245 242.415 56.0361 242.83 56.0361ZM247.67 53.2402C247.67 52.1055 247.939 51.194 248.477 50.5059C249.014 49.8132 249.718 49.4668 250.589 49.4668C251.455 49.4668 252.141 49.763 252.646 50.3555V46.5H253.911V57H252.749L252.688 56.207C252.182 56.8268 251.478 57.1367 250.575 57.1367C249.718 57.1367 249.019 56.7858 248.477 56.084C247.939 55.3822 247.67 54.4661 247.67 53.3359V53.2402ZM248.935 53.3838C248.935 54.2223 249.108 54.8786 249.454 55.3525C249.8 55.8265 250.279 56.0635 250.89 56.0635C251.692 56.0635 252.277 55.7035 252.646 54.9834V51.5859C252.268 50.8887 251.687 50.54 250.903 50.54C250.284 50.54 249.8 50.7793 249.454 51.2578C249.108 51.7363 248.935 52.445 248.935 53.3838Z" fill="black" fill-opacity="0.45"/>
<path d="M1.99999 81.5C1.79569 81.5 1.60211 81.4594 1.42595 81.3864L1.04289 82.3101C1.33835 82.4326 1.66194 82.5 1.99999 82.5V81.5ZM0.613623 80.5741C0.54057 80.3979 0.5 80.2043 0.5 80H-0.5C-0.5 80.3381 -0.432626 80.6616 -0.310104 80.9571L0.613623 80.5741ZM0.5 80V79.025H-0.5V80H0.5ZM0.5 77.075V75.125H-0.5V77.075H0.5ZM0.5 73.175V71.225H-0.5V73.175H0.5ZM0.5 69.275V67.325H-0.5V69.275H0.5ZM0.5 65.375V63.425H-0.5V65.375H0.5ZM0.5 61.475V59.525H-0.5V61.475H0.5ZM0.5 57.575V55.625H-0.5V57.575H0.5ZM0.5 53.675V51.725H-0.5V53.675H0.5ZM0.5 49.775V47.825H-0.5V49.775H0.5ZM0.5 45.875V43.925H-0.5V45.875H0.5ZM0.5 41.975V40.025H-0.5V41.975H0.5ZM0.5 38.075V36.125H-0.5V38.075H0.5ZM0.5 34.175V32.225H-0.5V34.175H0.5ZM0.5 30.275V28.325H-0.5V30.275H0.5ZM0.5 26.375V24.425H-0.5V26.375H0.5ZM0.5 22.475V20.525H-0.5V22.475H0.5ZM0.5 18.575V16.625H-0.5V18.575H0.5ZM0.5 14.675V12.725H-0.5V14.675H0.5ZM0.5 10.775V8.825H-0.5V10.775H0.5ZM0.5 6.875V4.925H-0.5V6.875H0.5ZM0.5 2.97501V2H-0.5V2.97501H0.5ZM0.5 2C0.5 1.79569 0.54057 1.60212 0.613624 1.42595L-0.310102 1.0429C-0.432625 1.33836 -0.5 1.66194 -0.5 2H0.5ZM1.42595 0.613624C1.60212 0.54057 1.79569 0.5 2 0.5V-0.5C1.66194 -0.5 1.33836 -0.432626 1.0429 -0.310103L1.42595 0.613624ZM2 0.5H2.99569V-0.5H2V0.5ZM4.98707 0.5H6.97845V-0.5H4.98707V0.5ZM8.96983 0.5H10.9612V-0.5H8.96983V0.5ZM12.9526 0.5H14.944V-0.5H12.9526V0.5ZM16.9353 0.5H18.9267V-0.5H16.9353V0.5ZM20.9181 0.5H22.9095V-0.5H20.9181V0.5ZM24.9009 0.5H26.8922V-0.5H24.9009V0.5ZM28.8836 0.5H30.875V-0.5H28.8836V0.5ZM32.8664 0.5H34.8578V-0.5H32.8664V0.5ZM36.8491 0.5H38.8405V-0.5H36.8491V0.5ZM40.8319 0.5H42.8233V-0.5H40.8319V0.5ZM44.8146 0.5H46.806V-0.5H44.8146V0.5ZM48.7974 0.5H50.7888V-0.5H48.7974V0.5ZM52.7802 0.5H54.7715V-0.5H52.7802V0.5ZM56.7629 0.5H58.7543V-0.5H56.7629V0.5ZM60.7457 0.5H62.7371V-0.5H60.7457V0.5ZM64.7284 0.5H66.7198V-0.5H64.7284V0.5ZM68.7112 0.5H70.7026V-0.5H68.7112V0.5ZM72.694 0.5H74.6853V-0.5H72.694V0.5ZM76.6767 0.5H78.6681V-0.5H76.6767V0.5ZM80.6595 0.5H82.6508V-0.5H80.6595V0.5ZM84.6422 0.5H86.6336V-0.5H84.6422V0.5ZM88.625 0.5H90.6164V-0.5H88.625V0.5ZM92.6077 0.5H94.5991V-0.5H92.6077V0.5ZM96.5905 0.5H98.5819V-0.5H96.5905V0.5ZM100.573 0.5H102.565V-0.5H100.573V0.5ZM104.556 0.5H106.547V-0.5H104.556V0.5ZM108.539 0.5H110.53V-0.5H108.539V0.5ZM112.522 0.5H114.513V-0.5H112.522V0.5ZM116.504 0.5H118.496V-0.5H116.504V0.5ZM120.487 0.5H122.478V-0.5H120.487V0.5ZM124.47 0.5H126.461V-0.5H124.47V0.5ZM128.453 0.5H130.444V-0.5H128.453V0.5ZM132.435 0.5H134.427V-0.5H132.435V0.5ZM136.418 0.5H138.409V-0.5H136.418V0.5ZM140.401 0.5H142.392V-0.5H140.401V0.5ZM144.384 0.5H146.375V-0.5H144.384V0.5ZM148.366 0.5H150.358V-0.5H148.366V0.5ZM152.349 0.5H154.34V-0.5H152.349V0.5ZM156.332 0.5H158.323V-0.5H156.332V0.5ZM160.315 0.5H162.306V-0.5H160.315V0.5ZM164.297 0.5H166.289V-0.5H164.297V0.5ZM168.28 0.5H170.272V-0.5H168.28V0.5ZM172.263 0.5H174.254V-0.5H172.263V0.5ZM176.246 0.5H178.237V-0.5H176.246V0.5ZM180.228 0.5H182.22V-0.5H180.228V0.5ZM184.211 0.5H186.203V-0.5H184.211V0.5ZM188.194 0.5H190.185V-0.5H188.194V0.5ZM192.177 0.5H194.168V-0.5H192.177V0.5ZM196.159 0.5H198.151V-0.5H196.159V0.5ZM200.142 0.5H202.134V-0.5H200.142V0.5ZM204.125 0.5H206.116V-0.5H204.125V0.5ZM208.108 0.5H210.099V-0.5H208.108V0.5ZM212.09 0.5H214.082V-0.5H212.09V0.5ZM216.073 0.5H218.065V-0.5H216.073V0.5ZM220.056 0.5H222.047V-0.5H220.056V0.5ZM224.039 0.5H226.03V-0.5H224.039V0.5ZM228.021 0.5H230.013V-0.5H228.021V0.5ZM232.004 0.5H233.996V-0.5H232.004V0.5ZM235.987 0.5H237.978V-0.5H235.987V0.5ZM239.97 0.5H241.961V-0.5H239.97V0.5ZM243.953 0.5H245.944V-0.5H243.953V0.5ZM247.935 0.5H249.927V-0.5H247.935V0.5ZM251.918 0.5H253.909V-0.5H251.918V0.5ZM255.901 0.5H257.892V-0.5H255.901V0.5ZM259.884 0.5H261.875V-0.5H259.884V0.5ZM263.866 0.5H265.858V-0.5H263.866V0.5ZM267.849 0.5H269.841V-0.5H267.849V0.5ZM271.832 0.5H273.823V-0.5H271.832V0.5ZM275.815 0.5H277.806V-0.5H275.815V0.5ZM279.798 0.5H281.789V-0.5H279.798V0.5ZM283.78 0.5H285.772V-0.5H283.78V0.5ZM287.763 0.5H289.754V-0.5H287.763V0.5ZM291.746 0.5H293.737V-0.5H291.746V0.5ZM295.729 0.5H297.72V-0.5H295.729V0.5ZM299.711 0.5H301.703V-0.5H299.711V0.5ZM303.694 0.5H305.686V-0.5H303.694V0.5ZM307.677 0.5H309.668V-0.5H307.677V0.5ZM311.66 0.5H313.651V-0.5H311.66V0.5ZM315.643 0.5H317.634V-0.5H315.643V0.5ZM319.625 0.5H321.617V-0.5H319.625V0.5ZM323.608 0.5H325.6V-0.5H323.608V0.5ZM327.591 0.5H329.582V-0.5H327.591V0.5ZM331.574 0.5H333.565V-0.5H331.574V0.5ZM335.557 0.5H337.548V-0.5H335.557V0.5ZM339.539 0.5H341.531V-0.5H339.539V0.5ZM343.522 0.5H345.514V-0.5H343.522V0.5ZM347.505 0.5H349.496V-0.5H347.505V0.5ZM351.488 0.5H353.479V-0.5H351.488V0.5ZM355.471 0.5H357.462V-0.5H355.471V0.5ZM359.453 0.5H361.445V-0.5H359.453V0.5ZM363.436 0.5H365.427V-0.5H363.436V0.5ZM367.419 0.5H369.41V-0.5H367.419V0.5ZM371.402 0.5H373.393V-0.5H371.402V0.5ZM375.384 0.5H377.376V-0.5H375.384V0.5ZM379.367 0.5H381.359V-0.5H379.367V0.5ZM383.35 0.5H385.341V-0.5H383.35V0.5ZM387.333 0.5H389.324V-0.5H387.333V0.5ZM391.316 0.5H393.307V-0.5H391.316V0.5ZM395.298 0.5H397.29V-0.5H395.298V0.5ZM399.281 0.5H401.273V-0.5H399.281V0.5ZM403.264 0.5H405.255V-0.5H403.264V0.5ZM407.247 0.5H409.238V-0.5H407.247V0.5ZM411.23 0.5H413.221V-0.5H411.23V0.5ZM415.212 0.5H417.204V-0.5H415.212V0.5ZM419.195 0.5H421.187V-0.5H419.195V0.5ZM423.178 0.5H425.169V-0.5H423.178V0.5ZM427.161 0.5H429.152V-0.5H427.161V0.5ZM431.143 0.5H433.135V-0.5H431.143V0.5ZM435.126 0.5H437.118V-0.5H435.126V0.5ZM439.109 0.5H441.1V-0.5H439.109V0.5ZM443.092 0.5H445.083V-0.5H443.092V0.5ZM447.075 0.5H449.066V-0.5H447.075V0.5ZM451.057 0.5H453.049V-0.5H451.057V0.5ZM455.04 0.5H457.032V-0.5H455.04V0.5ZM459.023 0.5H461.014V-0.5H459.023V0.5ZM463.006 0.5H464V-0.5H463.006V0.5ZM464 0.5C464.204 0.5 464.398 0.54057 464.574 0.613624L464.957 -0.310102C464.662 -0.432626 464.338 -0.5 464 -0.5V0.5ZM465.386 1.42595C465.459 1.60212 465.5 1.79569 465.5 2H466.5C466.5 1.66194 466.433 1.33836 466.31 1.0429L465.386 1.42595ZM465.5 2V2.975H466.5V2H465.5ZM465.5 4.925V6.875H466.5V4.925H465.5ZM465.5 8.825V10.775H466.5V8.825H465.5ZM465.5 12.725V14.675H466.5V12.725H465.5ZM465.5 16.625V18.575H466.5V16.625H465.5ZM465.5 20.525V22.475H466.5V20.525H465.5ZM465.5 24.425V26.375H466.5V24.425H465.5ZM465.5 28.325V30.275H466.5V28.325H465.5ZM465.5 32.225V34.175H466.5V32.225H465.5ZM465.5 36.125V38.075H466.5V36.125H465.5ZM465.5 40.025V41.975H466.5V40.025H465.5ZM465.5 43.925V45.875H466.5V43.925H465.5ZM465.5 47.825V49.775H466.5V47.825H465.5ZM465.5 51.725V53.675H466.5V51.725H465.5ZM465.5 55.625V57.575H466.5V55.625H465.5ZM465.5 59.525V61.475H466.5V59.525H465.5ZM465.5 63.425V65.375H466.5V63.425H465.5ZM465.5 67.325V69.275H466.5V67.325H465.5ZM465.5 71.225V73.175H466.5V71.225H465.5ZM465.5 75.125V77.075H466.5V75.125H465.5ZM465.5 79.025V80H466.5V79.025H465.5ZM465.5 80C465.5 80.2043 465.459 80.3979 465.386 80.5741L466.31 80.9571C466.433 80.6616 466.5 80.3381 466.5 80H465.5ZM464.574 81.3864C464.398 81.4594 464.204 81.5 464 81.5V82.5C464.338 82.5 464.662 82.4326 464.957 82.3101L464.574 81.3864ZM464 81.5H463.004V82.5H464V81.5ZM461.013 81.5H459.022V82.5H461.013V81.5ZM457.03 81.5H455.039V82.5H457.03V81.5ZM453.047 81.5H451.056V82.5H453.047V81.5ZM449.065 81.5H447.073V82.5H449.065V81.5ZM445.082 81.5H443.091V82.5H445.082V81.5ZM441.099 81.5H439.108V82.5H441.099V81.5ZM437.116 81.5H435.125V82.5H437.116V81.5ZM433.134 81.5H431.142V82.5H433.134V81.5ZM429.151 81.5H427.159V82.5H429.151V81.5ZM425.168 81.5H423.177V82.5H425.168V81.5ZM421.185 81.5H419.194V82.5H421.185V81.5ZM417.203 81.5H415.211V82.5H417.203V81.5ZM413.22 81.5H411.228V82.5H413.22V81.5ZM409.237 81.5H407.246V82.5H409.237V81.5ZM405.254 81.5H403.263V82.5H405.254V81.5ZM401.272 81.5H399.28V82.5H401.272V81.5ZM397.289 81.5H395.297V82.5H397.289V81.5ZM393.306 81.5H391.315V82.5H393.306V81.5ZM389.323 81.5H387.332V82.5H389.323V81.5ZM385.341 81.5H383.349V82.5H385.341V81.5ZM381.358 81.5H379.366V82.5H381.358V81.5ZM377.375 81.5H375.384V82.5H377.375V81.5ZM373.392 81.5H371.401V82.5H373.392V81.5ZM369.409 81.5H367.418V82.5H369.409V81.5ZM365.427 81.5H363.435V82.5H365.427V81.5ZM361.444 81.5H359.453V82.5H361.444V81.5ZM357.461 81.5H355.47V82.5H357.461V81.5ZM353.478 81.5H351.487V82.5H353.478V81.5ZM349.496 81.5H347.504V82.5H349.496V81.5ZM345.513 81.5H343.522V82.5H345.513V81.5ZM341.53 81.5H339.539V82.5H341.53V81.5ZM337.547 81.5H335.556V82.5H337.547V81.5ZM333.565 81.5H331.573V82.5H333.565V81.5ZM329.582 81.5H327.591V82.5H329.582V81.5ZM325.599 81.5H323.608V82.5H325.599V81.5ZM321.616 81.5H319.625V82.5H321.616V81.5ZM317.634 81.5H315.642V82.5H317.634V81.5ZM313.651 81.5H311.66V82.5H313.651V81.5ZM309.668 81.5H307.677V82.5H309.668V81.5ZM305.685 81.5H303.694V82.5H305.685V81.5ZM301.703 81.5H299.711V82.5H301.703V81.5ZM297.72 81.5H295.728V82.5H297.72V81.5ZM293.737 81.5H291.746V82.5H293.737V81.5ZM289.754 81.5H287.763V82.5H289.754V81.5ZM285.772 81.5H283.78V82.5H285.772V81.5ZM281.789 81.5H279.797V82.5H281.789V81.5ZM277.806 81.5H275.815V82.5H277.806V81.5ZM273.823 81.5H271.832V82.5H273.823V81.5ZM269.841 81.5H267.849V82.5H269.841V81.5ZM265.858 81.5H263.866V82.5H265.858V81.5ZM261.875 81.5H259.884V82.5H261.875V81.5ZM257.892 81.5H255.901V82.5H257.892V81.5ZM253.91 81.5H251.918V82.5H253.91V81.5ZM249.927 81.5H247.935V82.5H249.927V81.5ZM245.944 81.5H243.953V82.5H245.944V81.5ZM241.961 81.5H239.97V82.5H241.961V81.5ZM237.979 81.5H235.987V82.5H237.979V81.5ZM233.996 81.5H232.004V82.5H233.996V81.5ZM230.013 81.5H228.022V82.5H230.013V81.5ZM226.03 81.5H224.039V82.5H226.03V81.5ZM222.047 81.5H220.056V82.5H222.047V81.5ZM218.065 81.5H216.073V82.5H218.065V81.5ZM214.082 81.5H212.091V82.5H214.082V81.5ZM210.099 81.5H208.108V82.5H210.099V81.5ZM206.116 81.5H204.125V82.5H206.116V81.5ZM202.134 81.5H200.142V82.5H202.134V81.5ZM198.151 81.5H196.159V82.5H198.151V81.5ZM194.168 81.5H192.177V82.5H194.168V81.5ZM190.185 81.5H188.194V82.5H190.185V81.5ZM186.202 81.5H184.211V82.5H186.202V81.5ZM182.22 81.5H180.228V82.5H182.22V81.5ZM178.237 81.5H176.245V82.5H178.237V81.5ZM174.254 81.5H172.263V82.5H174.254V81.5ZM170.271 81.5H168.28V82.5H170.271V81.5ZM166.289 81.5H164.297V82.5H166.289V81.5ZM162.306 81.5H160.314V82.5H162.306V81.5ZM158.323 81.5H156.332V82.5H158.323V81.5ZM154.34 81.5H152.349V82.5H154.34V81.5ZM150.357 81.5H148.366V82.5H150.357V81.5ZM146.375 81.5H144.383V82.5H146.375V81.5ZM142.392 81.5H140.4V82.5H142.392V81.5ZM138.409 81.5H136.418V82.5H138.409V81.5ZM134.426 81.5H132.435V82.5H134.426V81.5ZM130.443 81.5H128.452V82.5H130.443V81.5ZM126.461 81.5H124.469V82.5H126.461V81.5ZM122.478 81.5H120.486V82.5H122.478V81.5ZM118.495 81.5H116.504V82.5H118.495V81.5ZM114.512 81.5H112.521V82.5H114.512V81.5ZM110.529 81.5H108.538V82.5H110.529V81.5ZM106.547 81.5H104.555V82.5H106.547V81.5ZM102.564 81.5H100.573V82.5H102.564V81.5ZM98.5812 81.5H96.5898V82.5H98.5812V81.5ZM94.5983 81.5H92.6069V82.5H94.5983V81.5ZM90.6156 81.5H88.6242V82.5H90.6156V81.5ZM86.6328 81.5H84.6414V82.5H86.6328V81.5ZM82.65 81.5H80.6586V82.5H82.65V81.5ZM78.6672 81.5H76.6758V82.5H78.6672V81.5ZM74.6844 81.5H72.693V82.5H74.6844V81.5ZM70.7016 81.5H68.7102V82.5H70.7016V81.5ZM66.7188 81.5H64.7275V82.5H66.7188V81.5ZM62.7361 81.5H60.7446V82.5H62.7361V81.5ZM58.7533 81.5H56.7619V82.5H58.7533V81.5ZM54.7705 81.5H52.7791V82.5H54.7705V81.5ZM50.7877 81.5H48.7963V82.5H50.7877V81.5ZM46.8049 81.5H44.8135V82.5H46.8049V81.5ZM42.8221 81.5H40.8307V82.5H42.8221V81.5ZM38.8393 81.5H36.8479V82.5H38.8393V81.5ZM34.8565 81.5H32.8651V82.5H34.8565V81.5ZM30.8738 81.5H28.8823V82.5H30.8738V81.5ZM26.8909 81.5H24.8996V82.5H26.8909V81.5ZM22.9082 81.5H20.9168V82.5H22.9082V81.5ZM18.9254 81.5H16.934V82.5H18.9254V81.5ZM14.9426 81.5H12.9512V82.5H14.9426V81.5ZM10.9598 81.5H8.9684V82.5H10.9598V81.5ZM6.97701 81.5H4.98562V82.5H6.97701V81.5ZM2.99423 81.5H1.99999V82.5H2.99423V81.5ZM1.99999 81C1.86256 81 1.73399 80.9728 1.61747 80.9245L0.851365 82.772C1.20647 82.9192 1.59506 83 1.99999 83V81ZM1.07549 80.3825C1.02717 80.266 1 80.1374 1 80H-1C-1 80.4049 -0.919224 80.7935 -0.771967 81.1486L1.07549 80.3825ZM1 80V79.025H-1V80H1ZM1 77.075V75.125H-1V77.075H1ZM1 73.175V71.225H-1V73.175H1ZM1 69.275V67.325H-1V69.275H1ZM1 65.375V63.425H-1V65.375H1ZM1 61.475V59.525H-1V61.475H1ZM1 57.575V55.625H-1V57.575H1ZM1 53.675V51.725H-1V53.675H1ZM1 49.775V47.825H-1V49.775H1ZM1 45.875V43.925H-1V45.875H1ZM1 41.975V40.025H-1V41.975H1ZM1 38.075V36.125H-1V38.075H1ZM1 34.175V32.225H-1V34.175H1ZM1 30.275V28.325H-1V30.275H1ZM1 26.375V24.425H-1V26.375H1ZM1 22.475V20.525H-1V22.475H1ZM1 18.575V16.625H-1V18.575H1ZM1 14.675V12.725H-1V14.675H1ZM1 10.775V8.825H-1V10.775H1ZM1 6.875V4.925H-1V6.875H1ZM1 2.97501V2H-1V2.97501H1ZM1 2C1 1.86256 1.02717 1.734 1.07549 1.61748L-0.771965 0.851368C-0.919223 1.20648 -1 1.59507 -1 2H1ZM1.61748 1.07549C1.734 1.02717 1.86257 1 2 1V-1C1.59507 -1 1.20648 -0.919224 0.851371 -0.771966L1.61748 1.07549ZM2 1H2.99569V-1H2V1ZM4.98707 1H6.97845V-1H4.98707V1ZM8.96983 1H10.9612V-1H8.96983V1ZM12.9526 1H14.944V-1H12.9526V1ZM16.9353 1H18.9267V-1H16.9353V1ZM20.9181 1H22.9095V-1H20.9181V1ZM24.9009 1H26.8922V-1H24.9009V1ZM28.8836 1H30.875V-1H28.8836V1ZM32.8664 1H34.8578V-1H32.8664V1ZM36.8491 1H38.8405V-1H36.8491V1ZM40.8319 1H42.8233V-1H40.8319V1ZM44.8146 1H46.806V-1H44.8146V1ZM48.7974 1H50.7888V-1H48.7974V1ZM52.7802 1H54.7715V-1H52.7802V1ZM56.7629 1H58.7543V-1H56.7629V1ZM60.7457 1H62.7371V-1H60.7457V1ZM64.7284 1H66.7198V-1H64.7284V1ZM68.7112 1H70.7026V-1H68.7112V1ZM72.694 1H74.6853V-1H72.694V1ZM76.6767 1H78.6681V-1H76.6767V1ZM80.6595 1H82.6508V-1H80.6595V1ZM84.6422 1H86.6336V-1H84.6422V1ZM88.625 1H90.6164V-1H88.625V1ZM92.6077 1H94.5991V-1H92.6077V1ZM96.5905 1H98.5819V-1H96.5905V1ZM100.573 1H102.565V-1H100.573V1ZM104.556 1H106.547V-1H104.556V1ZM108.539 1H110.53V-1H108.539V1ZM112.522 1H114.513V-1H112.522V1ZM116.504 1H118.496V-1H116.504V1ZM120.487 1H122.478V-1H120.487V1ZM124.47 1H126.461V-1H124.47V1ZM128.453 1H130.444V-1H128.453V1ZM132.435 1H134.427V-1H132.435V1ZM136.418 1H138.409V-1H136.418V1ZM140.401 1H142.392V-1H140.401V1ZM144.384 1H146.375V-1H144.384V1ZM148.366 1H150.358V-1H148.366V1ZM152.349 1H154.34V-1H152.349V1ZM156.332 1H158.323V-1H156.332V1ZM160.315 1H162.306V-1H160.315V1ZM164.297 1H166.289V-1H164.297V1ZM168.28 1H170.272V-1H168.28V1ZM172.263 1H174.254V-1H172.263V1ZM176.246 1H178.237V-1H176.246V1ZM180.228 1H182.22V-1H180.228V1ZM184.211 1H186.203V-1H184.211V1ZM188.194 1H190.185V-1H188.194V1ZM192.177 1H194.168V-1H192.177V1ZM196.159 1H198.151V-1H196.159V1ZM200.142 1H202.134V-1H200.142V1ZM204.125 1H206.116V-1H204.125V1ZM208.108 1H210.099V-1H208.108V1ZM212.09 1H214.082V-1H212.09V1ZM216.073 1H218.065V-1H216.073V1ZM220.056 1H222.047V-1H220.056V1ZM224.039 1H226.03V-1H224.039V1ZM228.021 1H230.013V-1H228.021V1ZM232.004 1H233.996V-1H232.004V1ZM235.987 1H237.978V-1H235.987V1ZM239.97 1H241.961V-1H239.97V1ZM243.953 1H245.944V-1H243.953V1ZM247.935 1H249.927V-1H247.935V1ZM251.918 1H253.909V-1H251.918V1ZM255.901 1H257.892V-1H255.901V1ZM259.884 1H261.875V-1H259.884V1ZM263.866 1H265.858V-1H263.866V1ZM267.849 1H269.841V-1H267.849V1ZM271.832 1H273.823V-1H271.832V1ZM275.815 1H277.806V-1H275.815V1ZM279.798 1H281.789V-1H279.798V1ZM283.78 1H285.772V-1H283.78V1ZM287.763 1H289.754V-1H287.763V1ZM291.746 1H293.737V-1H291.746V1ZM295.729 1H297.72V-1H295.729V1ZM299.711 1H301.703V-1H299.711V1ZM303.694 1H305.686V-1H303.694V1ZM307.677 1H309.668V-1H307.677V1ZM311.66 1H313.651V-1H311.66V1ZM315.643 1H317.634V-1H315.643V1ZM319.625 1H321.617V-1H319.625V1ZM323.608 1H325.6V-1H323.608V1ZM327.591 1H329.582V-1H327.591V1ZM331.574 1H333.565V-1H331.574V1ZM335.557 1H337.548V-1H335.557V1ZM339.539 1H341.531V-1H339.539V1ZM343.522 1H345.514V-1H343.522V1ZM347.505 1H349.496V-1H347.505V1ZM351.488 1H353.479V-1H351.488V1ZM355.471 1H357.462V-1H355.471V1ZM359.453 1H361.445V-1H359.453V1ZM363.436 1H365.427V-1H363.436V1ZM367.419 1H369.41V-1H367.419V1ZM371.402 1H373.393V-1H371.402V1ZM375.384 1H377.376V-1H375.384V1ZM379.367 1H381.359V-1H379.367V1ZM383.35 1H385.341V-1H383.35V1ZM387.333 1H389.324V-1H387.333V1ZM391.316 1H393.307V-1H391.316V1ZM395.298 1H397.29V-1H395.298V1ZM399.281 1H401.273V-1H399.281V1ZM403.264 1H405.255V-1H403.264V1ZM407.247 1H409.238V-1H407.247V1ZM411.23 1H413.221V-1H411.23V1ZM415.212 1H417.204V-1H415.212V1ZM419.195 1H421.187V-1H419.195V1ZM423.178 1H425.169V-1H423.178V1ZM427.161 1H429.152V-1H427.161V1ZM431.143 1H433.135V-1H431.143V1ZM435.126 1H437.118V-1H435.126V1ZM439.109 1H441.1V-1H439.109V1ZM443.092 1H445.083V-1H443.092V1ZM447.075 1H449.066V-1H447.075V1ZM451.057 1H453.049V-1H451.057V1ZM455.04 1H457.032V-1H455.04V1ZM459.023 1H461.014V-1H459.023V1ZM463.006 1H464V-1H463.006V1ZM464 1C464.137 1 464.266 1.02717 464.383 1.07549L465.149 -0.771965C464.794 -0.919223 464.405 -1 464 -1V1ZM464.924 1.61748C464.973 1.734 465 1.86256 465 2H467C467 1.59507 466.919 1.20648 466.772 0.851373L464.924 1.61748ZM465 2V2.975H467V2H465ZM465 4.925V6.875H467V4.925H465ZM465 8.825V10.775H467V8.825H465ZM465 12.725V14.675H467V12.725H465ZM465 16.625V18.575H467V16.625H465ZM465 20.525V22.475H467V20.525H465ZM465 24.425V26.375H467V24.425H465ZM465 28.325V30.275H467V28.325H465ZM465 32.225V34.175H467V32.225H465ZM465 36.125V38.075H467V36.125H465ZM465 40.025V41.975H467V40.025H465ZM465 43.925V45.875H467V43.925H465ZM465 47.825V49.775H467V47.825H465ZM465 51.725V53.675H467V51.725H465ZM465 55.625V57.575H467V55.625H465ZM465 59.525V61.475H467V59.525H465ZM465 63.425V65.375H467V63.425H465ZM465 67.325V69.275H467V67.325H465ZM465 71.225V73.175H467V71.225H465ZM465 75.125V77.075H467V75.125H465ZM465 79.025V80H467V79.025H465ZM465 80C465 80.1374 464.973 80.266 464.924 80.3825L466.772 81.1486C466.919 80.7935 467 80.4049 467 80H465ZM464.383 80.9245C464.266 80.9728 464.137 81 464 81V83C464.405 83 464.794 82.9192 465.149 82.772L464.383 80.9245ZM464 81H463.004V83H464V81ZM461.013 81H459.022V83H461.013V81ZM457.03 81H455.039V83H457.03V81ZM453.047 81H451.056V83H453.047V81ZM449.065 81H447.073V83H449.065V81ZM445.082 81H443.091V83H445.082V81ZM441.099 81H439.108V83H441.099V81ZM437.116 81H435.125V83H437.116V81ZM433.134 81H431.142V83H433.134V81ZM429.151 81H427.159V83H429.151V81ZM425.168 81H423.177V83H425.168V81ZM421.185 81H419.194V83H421.185V81ZM417.203 81H415.211V83H417.203V81ZM413.22 81H411.228V83H413.22V81ZM409.237 81H407.246V83H409.237V81ZM405.254 81H403.263V83H405.254V81ZM401.272 81H399.28V83H401.272V81ZM397.289 81H395.297V83H397.289V81ZM393.306 81H391.315V83H393.306V81ZM389.323 81H387.332V83H389.323V81ZM385.341 81H383.349V83H385.341V81ZM381.358 81H379.366V83H381.358V81ZM377.375 81H375.384V83H377.375V81ZM373.392 81H371.401V83H373.392V81ZM369.409 81H367.418V83H369.409V81ZM365.427 81H363.435V83H365.427V81ZM361.444 81H359.453V83H361.444V81ZM357.461 81H355.47V83H357.461V81ZM353.478 81H351.487V83H353.478V81ZM349.496 81H347.504V83H349.496V81ZM345.513 81H343.522V83H345.513V81ZM341.53 81H339.539V83H341.53V81ZM337.547 81H335.556V83H337.547V81ZM333.565 81H331.573V83H333.565V81ZM329.582 81H327.591V83H329.582V81ZM325.599 81H323.608V83H325.599V81ZM321.616 81H319.625V83H321.616V81ZM317.634 81H315.642V83H317.634V81ZM313.651 81H311.66V83H313.651V81ZM309.668 81H307.677V83H309.668V81ZM305.685 81H303.694V83H305.685V81ZM301.703 81H299.711V83H301.703V81ZM297.72 81H295.728V83H297.72V81ZM293.737 81H291.746V83H293.737V81ZM289.754 81H287.763V83H289.754V81ZM285.772 81H283.78V83H285.772V81ZM281.789 81H279.797V83H281.789V81ZM277.806 81H275.815V83H277.806V81ZM273.823 81H271.832V83H273.823V81ZM269.841 81H267.849V83H269.841V81ZM265.858 81H263.866V83H265.858V81ZM261.875 81H259.884V83H261.875V81ZM257.892 81H255.901V83H257.892V81ZM253.91 81H251.918V83H253.91V81ZM249.927 81H247.935V83H249.927V81ZM245.944 81H243.953V83H245.944V81ZM241.961 81H239.97V83H241.961V81ZM237.979 81H235.987V83H237.979V81ZM233.996 81H232.004V83H233.996V81ZM230.013 81H228.022V83H230.013V81ZM226.03 81H224.039V83H226.03V81ZM222.047 81H220.056V83H222.047V81ZM218.065 81H216.073V83H218.065V81ZM214.082 81H212.091V83H214.082V81ZM210.099 81H208.108V83H210.099V81ZM206.116 81H204.125V83H206.116V81ZM202.134 81H200.142V83H202.134V81ZM198.151 81H196.159V83H198.151V81ZM194.168 81H192.177V83H194.168V81ZM190.185 81H188.194V83H190.185V81ZM186.202 81H184.211V83H186.202V81ZM182.22 81H180.228V83H182.22V81ZM178.237 81H176.245V83H178.237V81ZM174.254 81H172.263V83H174.254V81ZM170.271 81H168.28V83H170.271V81ZM166.289 81H164.297V83H166.289V81ZM162.306 81H160.314V83H162.306V81ZM158.323 81H156.332V83H158.323V81ZM154.34 81H152.349V83H154.34V81ZM150.357 81H148.366V83H150.357V81ZM146.375 81H144.383V83H146.375V81ZM142.392 81H140.4V83H142.392V81ZM138.409 81H136.418V83H138.409V81ZM134.426 81H132.435V83H134.426V81ZM130.443 81H128.452V83H130.443V81ZM126.461 81H124.469V83H126.461V81ZM122.478 81H120.486V83H122.478V81ZM118.495 81H116.504V83H118.495V81ZM114.512 81H112.521V83H114.512V81ZM110.529 81H108.538V83H110.529V81ZM106.547 81H104.555V83H106.547V81ZM102.564 81H100.573V83H102.564V81ZM98.5812 81H96.5898V83H98.5812V81ZM94.5983 81H92.6069V83H94.5983V81ZM90.6156 81H88.6242V83H90.6156V81ZM86.6328 81H84.6414V83H86.6328V81ZM82.65 81H80.6586V83H82.65V81ZM78.6672 81H76.6758V83H78.6672V81ZM74.6844 81H72.693V83H74.6844V81ZM70.7016 81H68.7102V83H70.7016V81ZM66.7188 81H64.7275V83H66.7188V81ZM62.7361 81H60.7446V83H62.7361V81ZM58.7533 81H56.7619V83H58.7533V81ZM54.7705 81H52.7791V83H54.7705V81ZM50.7877 81H48.7963V83H50.7877V81ZM46.8049 81H44.8135V83H46.8049V81ZM42.8221 81H40.8307V83H42.8221V81ZM38.8393 81H36.8479V83H38.8393V81ZM34.8565 81H32.8651V83H34.8565V81ZM30.8738 81H28.8823V83H30.8738V81ZM26.8909 81H24.8996V83H26.8909V81ZM22.9082 81H20.9168V83H22.9082V81ZM18.9254 81H16.934V83H18.9254V81ZM14.9426 81H12.9512V83H14.9426V81ZM10.9598 81H8.9684V83H10.9598V81ZM6.97701 81H4.98562V83H6.97701V81ZM2.99423 81H1.99999V83H2.99423V81Z" fill="#D9D9D9"/>
</svg>
